<svg width="1250" height="741" viewBox="0 0 1250 741" fill="none" xmlns="http://www.w3.org/2000/svg">
<line x1="41.7615" y1="38.3212" x2="1209.81" y2="695.033" stroke="#B47EB3" stroke-width="10"/>
<circle cx="1200.29" cy="690.624" r="25" transform="rotate(29.3461 1200.29 690.624)" fill="#B47EB3" fill-opacity="0.2"/>
<circle cx="905.29" cy="528.599" r="25" transform="rotate(29.3461 905.29 528.599)" fill="#B47EB3" fill-opacity="0.2"/>
<circle cx="635.135" cy="372.211" r="25" transform="rotate(29.3461 635.135 372.211)" fill="#B47EB3" fill-opacity="0.2"/>
<circle cx="371.67" cy="221.231" r="25" transform="rotate(29.3461 371.67 221.231)" fill="#B47EB3" fill-opacity="0.2"/>
<circle cx="49.6823" cy="43.7144" r="25" transform="rotate(29.3461 49.6823 43.7144)" fill="#B47EB3" fill-opacity="0.2"/>
<path d="M1217.19 664.438L1179.69 664.438L1179.69 701.938L1217.19 701.938L1217.19 664.438Z" fill="#C69324"/>
<path d="M1196.88 681.625L1187.5 681.625L1187.5 689.438L1196.87 689.438L1196.88 681.625Z" fill="#F5C99D"/>
<path d="M1189.06 675.375L1195.31 675.375C1195.73 675.375 1196.12 675.54 1196.42 675.833C1196.71 676.126 1196.87 676.523 1196.87 676.938L1196.87 681.625L1187.5 681.625L1187.5 676.938C1187.5 676.523 1187.66 676.126 1187.96 675.833C1188.25 675.54 1188.65 675.375 1189.06 675.375Z" fill="#CC4C4D"/>
<path d="M1168.75 653.5L1159.38 653.5L1159.37 662.875L1168.75 662.875L1168.75 653.5Z" fill="#F5C99D"/>
<path d="M1160.94 647.25L1167.19 647.25C1167.6 647.25 1168 647.415 1168.29 647.708C1168.59 648.001 1168.75 648.398 1168.75 648.813L1168.75 653.5L1159.37 653.5L1159.37 648.812C1159.37 648.398 1159.54 648.001 1159.83 647.708C1160.13 647.415 1160.52 647.25 1160.94 647.25Z" fill="#CC4C4D"/>
<path d="M1185.74 716L1182.93 723.496C1182.85 723.704 1182.73 723.894 1182.57 724.052L1173.9 732.73C1173.75 732.875 1173.58 732.99 1173.39 733.069C1173.2 733.147 1173 733.188 1172.79 733.188L1170.22 733.188C1169.94 733.188 1169.66 733.108 1169.41 732.959C1169.16 732.809 1168.97 732.595 1168.83 732.34C1168.7 732.085 1168.64 731.798 1168.67 731.512C1168.69 731.226 1168.79 730.95 1168.95 730.717L1174.84 722.47C1174.95 722.324 1175.03 722.162 1175.07 721.991L1178.13 711.313L1178.13 708.188L1185.94 708.188L1185.74 716Z" fill="#B0A9A5"/>
<path d="M1178.12 703.5L1178.12 710.508C1178.13 710.757 1178.18 711.002 1178.3 711.223C1178.41 711.445 1178.58 711.635 1178.78 711.78L1188.32 718.592C1188.54 718.754 1188.72 718.973 1188.84 719.227C1188.95 719.48 1188.99 719.76 1188.96 720.036L1187.69 731.452C1187.67 731.671 1187.69 731.892 1187.76 732.101C1187.82 732.311 1187.93 732.503 1188.08 732.667C1188.23 732.831 1188.41 732.962 1188.61 733.051C1188.81 733.141 1189.03 733.188 1189.25 733.188L1191.02 733.188C1191.36 733.188 1191.69 733.079 1191.96 732.879C1192.23 732.678 1192.43 732.396 1192.52 732.074L1196.7 718.156C1196.81 717.775 1196.78 717.364 1196.6 717.008L1190.63 705.063L1190.63 703.5L1178.12 703.5Z" fill="#EFE8E0"/>
<path d="M1209.37 701.937L1209.37 706.625L1206.25 706.625L1198.74 705.123C1198.54 705.083 1198.35 705.004 1198.18 704.891L1194.82 702.648C1194.52 702.448 1194.15 702.358 1193.8 702.393C1193.44 702.429 1193.1 702.588 1192.84 702.843L1190.62 705.062L1178.12 705.062L1178.12 700.676C1178.12 700.477 1178.16 700.28 1178.24 700.096L1181.09 692.969C1181.19 692.703 1181.37 692.472 1181.6 692.3L1186.97 688.276C1187.13 688.149 1187.33 688.058 1187.53 688.008C1187.74 687.958 1187.95 687.95 1188.16 687.985L1196.16 689.319C1196.39 689.356 1196.6 689.441 1196.79 689.569C1196.97 689.696 1197.13 689.862 1197.25 690.056L1201.41 696.988C1201.51 697.161 1201.65 697.312 1201.81 697.434L1207.81 701.937L1209.37 701.937Z" fill="#4FBFCB"/>
<path d="M1153.82 663.453L1159.38 659.75L1168.08 661.201C1168.29 661.236 1168.49 661.314 1168.67 661.43C1168.85 661.546 1169.01 661.698 1169.13 661.876L1174.91 670.559C1174.97 670.644 1175.04 670.724 1175.11 670.797L1179.69 675.375L1179.69 680.063L1172.34 678.593C1172.04 678.532 1171.76 678.384 1171.54 678.165L1166.73 673.355C1166.44 673.062 1166.04 672.897 1165.62 672.897C1165.21 672.897 1164.81 673.062 1164.52 673.355L1162.68 675.196C1162.56 675.314 1162.46 675.452 1162.39 675.602L1161.37 677.636C1161.24 677.896 1161.04 678.114 1160.79 678.267C1160.55 678.419 1160.26 678.5 1159.97 678.5L1153.12 678.5L1153.12 664.753C1153.13 664.496 1153.19 664.242 1153.31 664.016C1153.43 663.789 1153.61 663.595 1153.82 663.453Z" fill="#4FBFCB"/>
<path d="M1160.94 678.5L1166.96 693.563C1167.11 693.925 1167.11 694.327 1166.97 694.692L1162.88 705.611C1162.77 705.909 1162.57 706.166 1162.31 706.347C1162.05 706.528 1161.74 706.625 1161.42 706.625L1159.58 706.625C1159.36 706.625 1159.14 706.578 1158.94 706.487C1158.74 706.396 1158.56 706.263 1158.41 706.097C1158.26 705.93 1158.15 705.735 1158.09 705.523C1158.02 705.312 1158 705.089 1158.03 704.869L1159.3 694.751C1159.35 694.35 1159.24 693.944 1159 693.62L1153.44 686.208C1153.23 685.938 1153.12 685.609 1153.12 685.271L1153.13 678.5L1160.94 678.5Z" fill="#EFE8E0"/>
<path d="M1172.59 678.642L1179.69 680.062L1179.69 675.375L1176.04 671.729L1172.59 678.642Z" fill="#F5C99D"/>
<path d="M1199.24 705.223L1206.25 706.625L1209.38 706.625L1209.38 701.938L1207.81 701.938L1203.13 698.422L1199.24 705.223Z" fill="#F5C99D"/>
<path d="M1225 733.188C1236.22 733.188 1245.31 724.093 1245.31 712.875C1245.31 701.657 1236.22 692.563 1225 692.563C1213.78 692.563 1204.69 701.657 1204.69 712.875C1204.69 724.093 1213.78 733.188 1225 733.188Z" fill="#EEBF3E"/>
<path d="M1225 691C1222.88 691.002 1220.78 691.312 1218.75 691.921L1218.75 664.438C1218.75 664.232 1218.71 664.029 1218.63 663.839C1218.55 663.65 1218.44 663.477 1218.29 663.332C1218.15 663.187 1217.98 663.072 1217.79 662.994C1217.6 662.915 1217.39 662.875 1217.19 662.875L1179.69 662.875C1179.48 662.875 1179.28 662.915 1179.09 662.994C1178.9 663.072 1178.73 663.187 1178.58 663.332C1178.44 663.477 1178.32 663.65 1178.24 663.839C1178.17 664.029 1178.12 664.232 1178.12 664.438L1178.12 671.603L1176.21 669.693L1170.42 661.007C1170.39 660.958 1170.35 660.919 1170.31 660.873L1170.31 648.813C1170.31 647.984 1169.98 647.19 1169.4 646.604C1168.81 646.018 1168.02 645.689 1167.19 645.688L1160.94 645.688C1160.11 645.689 1159.31 646.018 1158.73 646.604C1158.14 647.19 1157.81 647.984 1157.81 648.813L1157.81 658.914L1153.82 661.575L1155.55 664.175L1159.73 661.393L1167.83 662.742L1173.61 671.42C1173.73 671.594 1173.86 671.755 1174.01 671.902L1174.14 672.038L1171.97 676.383L1167.83 672.25C1167.25 671.665 1166.45 671.337 1165.62 671.337C1164.8 671.337 1164 671.665 1163.42 672.25L1161.58 674.09C1161.34 674.328 1161.14 674.602 1160.99 674.904L1159.97 676.938L1153.12 676.938L1153.12 680.062L1159.88 680.063L1165.51 694.142L1161.42 705.063L1159.58 705.063L1160.85 694.944C1160.95 694.141 1160.73 693.329 1160.25 692.683L1155.94 686.938L1153.44 688.812L1157.75 694.557L1156.48 704.673C1156.47 704.803 1156.47 704.933 1156.47 705.063L1153.12 705.062L1153.12 708.188L1176.56 708.188L1176.56 710.508C1176.57 710.646 1176.59 710.783 1176.61 710.919L1173.57 721.562L1167.68 729.808C1167.31 730.339 1167.11 730.975 1167.12 731.625L1153.12 731.625L1153.12 734.75L1225 734.75C1230.8 734.75 1236.37 732.445 1240.47 728.343C1244.57 724.241 1246.87 718.677 1246.87 712.875C1246.87 707.073 1244.57 701.509 1240.47 697.407C1236.37 693.305 1230.8 691 1225 691ZM1160.94 648.813L1167.19 648.813L1167.19 651.938L1160.94 651.938L1160.94 648.813ZM1167.19 655.063L1167.19 659.468L1160.94 658.427L1160.94 655.063L1167.19 655.063ZM1215.62 666L1215.62 693.141C1212.43 694.666 1209.65 696.94 1207.53 699.77L1202.75 696.183L1198.59 689.253C1198.54 689.182 1198.49 689.124 1198.44 689.057L1198.44 676.938C1198.44 676.109 1198.11 675.315 1197.52 674.729C1196.94 674.143 1196.14 673.814 1195.31 673.813L1189.06 673.813C1188.23 673.814 1187.44 674.143 1186.85 674.729C1186.27 675.315 1185.94 676.109 1185.94 676.938L1185.94 687.093L1181.25 690.611L1181.25 666L1215.62 666ZM1204.72 704.725L1201.67 704.116L1203.6 700.733L1205.81 702.388C1205.4 703.145 1205.03 703.925 1204.72 704.725ZM1191.74 701.739L1189.98 703.5L1179.69 703.5L1179.69 700.676L1182.54 693.55L1187.9 689.526L1195.91 690.86L1200.06 697.789C1200.27 698.137 1200.54 698.441 1200.87 698.683L1201.08 698.844L1198.56 703.266L1195.68 701.349C1195.08 700.95 1194.36 700.771 1193.64 700.842C1192.92 700.914 1192.25 701.23 1191.74 701.739V701.739ZM1195.31 680.063L1189.06 680.063L1189.06 676.938L1195.31 676.938L1195.31 680.063ZM1195.31 683.188L1195.31 687.593L1189.06 686.551L1189.06 683.188L1195.31 683.188ZM1178.12 676.022L1178.12 678.157L1174.9 677.511L1176.47 674.367L1178.12 676.022ZM1164.76 705.063L1168.44 695.236C1168.71 694.508 1168.7 693.705 1168.41 692.984L1162.63 678.531C1162.67 678.462 1162.73 678.408 1162.77 678.335L1163.78 676.3L1165.62 674.459L1170.44 679.271C1170.87 679.707 1171.43 680.004 1172.03 680.125L1178.12 681.343L1178.12 696.166L1176.78 699.519C1176.64 699.887 1176.56 700.28 1176.56 700.676L1176.56 703.5C1176.57 704.05 1176.72 704.59 1177 705.063L1164.76 705.063ZM1170.22 731.625L1176.11 723.379C1176.32 723.088 1176.48 722.763 1176.58 722.419L1179.02 713.871L1183.64 717.168L1181.47 722.947L1172.79 731.625L1170.22 731.625ZM1186.14 731.282C1186.13 731.396 1186.13 731.511 1186.14 731.625L1177.21 731.625L1183.68 725.157C1183.99 724.842 1184.24 724.463 1184.39 724.044L1186.27 719.049L1187.41 719.864L1186.14 731.282ZM1189.25 731.625L1190.52 720.208C1190.58 719.656 1190.49 719.097 1190.26 718.589C1190.04 718.082 1189.68 717.644 1189.22 717.321L1179.69 710.508L1179.69 706.625L1189.66 706.625L1195.2 717.707L1191.02 731.625L1189.25 731.625ZM1194.29 731.625L1198.19 718.605C1198.42 717.843 1198.35 717.021 1197.99 716.31L1192.53 705.371L1193.95 703.949L1197.32 706.195C1197.66 706.42 1198.04 706.576 1198.43 706.656L1203.76 707.721C1202.64 712.254 1203.01 717.029 1204.81 721.336C1206.62 725.643 1209.77 729.251 1213.79 731.625L1194.29 731.625ZM1225 731.625C1221.29 731.625 1217.67 730.525 1214.58 728.465C1211.5 726.405 1209.1 723.476 1207.68 720.05C1206.26 716.624 1205.89 712.854 1206.61 709.217C1207.33 705.58 1209.12 702.239 1211.74 699.617C1214.36 696.995 1217.7 695.209 1221.34 694.485C1224.98 693.762 1228.75 694.133 1232.18 695.552C1235.6 696.971 1238.53 699.375 1240.59 702.458C1242.65 705.541 1243.75 709.167 1243.75 712.875C1243.74 717.846 1241.77 722.612 1238.25 726.127C1234.74 729.642 1229.97 731.62 1225 731.625Z" fill="black"/>
<g clip-path="url(#clip0)">
<path d="M900 561.535C918.156 561.535 932.874 546.817 932.874 528.661C932.874 510.505 918.156 495.787 900 495.787C881.844 495.787 867.126 510.505 867.126 528.661C867.126 546.817 881.844 561.535 900 561.535Z" fill="#F6E266"/>
<path d="M900 495.787C899.186 495.787 898.379 495.818 897.579 495.876C914.605 497.115 928.033 511.32 928.033 528.661C928.033 546.003 914.605 560.207 897.579 561.446C898.379 561.504 899.186 561.535 900 561.535C918.156 561.535 932.874 546.817 932.874 528.661C932.874 510.505 918.156 495.787 900 495.787Z" fill="#ECBE6B"/>
<path d="M911.232 475.577L900 464.465L888.768 475.577L893.718 475.577C894.364 475.577 894.888 476.101 894.888 476.747L894.888 490.859L905.112 490.859L905.112 476.747C905.112 476.101 905.636 475.577 906.283 475.577L911.232 475.577Z" fill="#78C2A4"/>
<path d="M901.057 476.747L901.057 490.859L905.112 490.859L905.112 476.747C905.112 476.101 905.636 475.577 906.282 475.577L902.228 475.577C901.582 475.577 901.057 476.101 901.057 476.747Z" fill="#66B394"/>
<path d="M900 464.465L897.973 466.47L907.178 475.577L911.232 475.577L900 464.465Z" fill="#66B394"/>
<path d="M900 554.342C914.16 554.342 925.681 542.821 925.681 528.661C925.681 514.501 914.16 502.981 900 502.981C885.84 502.981 874.32 514.501 874.32 528.661C874.319 542.821 885.84 554.342 900 554.342ZM900 505.91C912.545 505.91 922.751 516.116 922.751 528.661C922.751 541.206 912.545 551.412 900 551.412C887.455 551.412 877.249 541.206 877.249 528.661C877.249 516.117 887.455 505.91 900 505.91Z" fill="black"/>
<path d="M893.293 539.172C895.281 540.472 896.632 540.847 898.397 540.938L898.397 542.686C898.397 543.495 899.052 544.151 899.862 544.151C900.671 544.151 901.326 543.495 901.326 542.686L901.326 540.824C904.795 540.174 906.821 537.328 907.268 534.67C907.838 531.277 906.063 528.327 902.745 527.154C902.279 526.99 901.802 526.817 901.326 526.636L901.326 519.085C903.09 519.299 904.354 520.06 904.382 520.077C905.066 520.503 905.966 520.298 906.397 519.616C906.829 518.932 906.624 518.027 905.94 517.595C905.829 517.526 903.953 516.368 901.326 516.138L901.326 514.637C901.326 513.828 900.671 513.172 899.862 513.172C899.052 513.172 898.397 513.828 898.397 514.637L898.397 516.311C898.147 516.365 897.895 516.428 897.64 516.505C895.459 517.162 893.828 519.03 893.385 521.379C892.982 523.519 893.666 525.581 895.17 526.761C895.983 527.399 896.999 527.983 898.397 528.602L898.397 538.005C897.142 537.924 896.301 537.639 894.898 536.72C894.22 536.278 893.313 536.467 892.87 537.144C892.427 537.821 892.617 538.729 893.293 539.172ZM896.978 524.455C896.338 523.953 896.064 522.982 896.264 521.922C896.448 520.948 897.105 519.773 898.397 519.34L898.397 525.35C897.86 525.066 897.376 524.768 896.978 524.455ZM901.769 529.917C904.683 530.946 904.503 533.443 904.379 534.184C904.131 535.655 903.093 537.219 901.326 537.799L901.326 529.758C901.472 529.811 901.617 529.863 901.769 529.917Z" fill="black"/>
<path d="M879.448 486.378L881.287 484.909L881.287 494.225C881.287 495.034 881.943 495.689 882.752 495.689C883.561 495.689 884.217 495.034 884.217 494.225L884.217 484.909L886.056 486.378C886.326 486.594 886.648 486.699 886.969 486.699C887.399 486.699 887.825 486.511 888.114 486.149C888.62 485.517 888.517 484.595 887.884 484.09L883.666 480.72C883.131 480.292 882.372 480.292 881.838 480.72L877.619 484.09C876.987 484.595 876.884 485.517 877.389 486.149C877.895 486.78 878.816 486.884 879.448 486.378Z" fill="black"/>
<path d="M911.886 486.149C912.391 486.78 913.312 486.884 913.944 486.379L915.783 484.91L915.783 494.225C915.783 495.034 916.439 495.69 917.248 495.69C918.057 495.69 918.713 495.034 918.713 494.225L918.713 484.91L920.552 486.379C920.822 486.594 921.145 486.699 921.465 486.699C921.895 486.699 922.322 486.511 922.611 486.149C923.116 485.517 923.013 484.595 922.381 484.09L918.162 480.72C917.628 480.293 916.868 480.293 916.334 480.72L912.115 484.09C911.483 484.595 911.381 485.516 911.886 486.149Z" fill="black"/>
<path d="M900 494.322C881.066 494.322 865.661 509.727 865.661 528.661C865.661 537.448 868.979 545.809 875.004 552.203C875.559 552.792 876.486 552.82 877.075 552.265C877.664 551.71 877.691 550.783 877.137 550.194C871.626 544.345 868.591 536.698 868.591 528.661C868.591 511.342 882.681 497.252 900 497.252C917.319 497.252 931.409 511.342 931.409 528.661C931.409 545.98 917.319 560.07 900 560.07C893.219 560.07 886.763 557.943 881.328 553.919C880.678 553.437 879.761 553.574 879.279 554.224C878.798 554.874 878.935 555.791 879.585 556.273C885.527 560.674 892.587 563 900 563C918.935 563 934.339 547.596 934.339 528.661C934.339 509.727 918.935 494.322 900 494.322Z" fill="black"/>
<path d="M897.299 469.197L900 466.525L907.669 474.112L906.282 474.112C904.829 474.112 903.647 475.294 903.647 476.747L903.647 490.859C903.647 491.669 904.303 492.324 905.112 492.324C905.921 492.324 906.577 491.669 906.577 490.859L906.577 477.042L911.232 477.042C911.826 477.042 912.361 476.683 912.587 476.134C912.813 475.585 912.685 474.953 912.262 474.536L901.03 463.423C900.459 462.859 899.54 462.859 898.97 463.423L895.239 467.115C894.663 467.684 894.658 468.611 895.227 469.186C895.797 469.762 896.724 469.767 897.299 469.197Z" fill="black"/>
<path d="M888.768 477.042L893.423 477.042L893.423 490.859C893.423 491.669 894.079 492.324 894.888 492.324C895.698 492.324 896.353 491.669 896.353 490.859L896.353 476.747C896.353 475.294 895.171 474.112 893.718 474.112L892.331 474.112L893.135 473.317C893.711 472.748 893.716 471.82 893.147 471.245C892.577 470.67 891.65 470.665 891.075 471.234L887.738 474.536C887.316 474.953 887.188 475.585 887.414 476.134C887.639 476.683 888.174 477.042 888.768 477.042Z" fill="black"/>
</g>
<g clip-path="url(#clip1)">
<path d="M679.941 397.039C679.942 397.567 679.838 398.089 679.637 398.576C679.435 399.064 679.139 399.507 678.766 399.88C678.393 400.253 677.951 400.548 677.463 400.75C676.976 400.952 676.453 401.055 675.926 401.055L674.301 401.055C673.73 404.286 672.039 407.213 669.525 409.322C667.011 411.431 663.834 412.587 660.553 412.587C657.271 412.587 654.095 411.431 651.581 409.322C649.066 407.213 647.376 404.286 646.805 401.055L645.18 401.055C644.114 401.055 643.092 400.631 642.339 399.878C641.585 399.125 641.162 398.103 641.162 397.037C641.162 395.972 641.585 394.95 642.339 394.196C643.092 393.443 644.114 393.02 645.18 393.02L646.59 393.02L646.59 394.875L652.195 386.973L668.91 386.973L674.516 394.875L674.516 393.02L675.926 393.02C676.453 393.019 676.976 393.123 677.463 393.325C677.951 393.527 678.394 393.824 678.767 394.197C679.14 394.57 679.435 395.013 679.637 395.501C679.838 395.989 679.942 396.511 679.941 397.039Z" fill="#FFB69F"/>
<path d="M674.485 361.719C676.72 359.755 678.47 357.301 679.601 354.549C680.731 351.798 681.21 348.822 681.001 345.854C680.792 342.887 679.901 340.007 678.396 337.441C676.891 334.875 674.814 332.691 672.326 331.06C669.838 329.428 667.007 328.394 664.054 328.036C661.1 327.679 658.104 328.009 655.299 329C652.494 329.991 649.956 331.617 647.883 333.751C645.81 335.884 644.257 338.468 643.347 341.3C643.222 341.693 643.021 342.057 642.754 342.37C642.487 342.684 642.16 342.941 641.793 343.127L633.671 347.211L641.793 351.293C642.16 351.479 642.487 351.737 642.754 352.051C643.021 352.364 643.222 352.728 643.347 353.121C647.63 366.491 664.236 370.76 674.485 361.719Z" fill="#F0C020"/>
<path d="M625.871 346.762L625.871 358.372L617.867 358.372C618.143 357.36 618.282 356.317 618.28 355.268L618.28 345.786L598.998 343.197C598.427 343.123 597.847 343.172 597.297 343.34C596.746 343.508 596.238 343.791 595.806 344.171C595.373 344.551 595.027 345.018 594.79 345.542C594.553 346.067 594.43 346.635 594.43 347.211L594.43 355.268C594.432 356.316 594.57 357.36 594.843 358.372L586.831 358.372L586.831 347.2C586.831 336.45 595.334 327.395 606.067 327.236C608.655 327.197 611.225 327.674 613.627 328.638C616.029 329.602 618.215 331.034 620.058 332.852C621.901 334.669 623.365 336.835 624.363 339.223C625.361 341.611 625.873 344.174 625.871 346.762Z" fill="#7C7B7A"/>
<path d="M598.998 343.197C598.427 343.123 597.847 343.172 597.297 343.34C596.746 343.508 596.238 343.791 595.806 344.171C595.374 344.551 595.027 345.018 594.79 345.542C594.553 346.067 594.43 346.635 594.43 347.211L594.43 355.268C594.43 358.159 595.481 360.952 597.387 363.126C599.292 365.3 601.923 366.707 604.789 367.087C607.655 367.466 610.561 366.792 612.967 365.189C615.373 363.586 617.114 361.163 617.867 358.372C618.143 357.36 618.282 356.317 618.28 355.268L618.28 345.786L598.998 343.197Z" fill="#FFB69F"/>
<path d="M675.227 374.423L672.699 372.692C672.491 373.788 671.907 374.778 671.047 375.49C670.188 376.201 669.107 376.591 667.991 376.591L652.928 376.591C651.247 376.592 649.636 377.26 648.447 378.449C647.259 379.637 646.591 381.249 646.59 382.93L646.59 394.875L652.195 386.973L652.19 386.973L668.913 386.973L668.91 386.973L674.516 394.875L674.516 386.97L676.261 385.201C676.986 384.466 677.541 383.58 677.887 382.607C678.232 381.635 678.36 380.598 678.262 379.57C678.163 378.542 677.84 377.549 677.316 376.659C676.791 375.77 676.078 375.006 675.227 374.423Z" fill="#7C7B7A"/>
<path d="M594.486 378.164C592.257 380.123 590.51 382.571 589.382 385.316C588.255 388.061 587.777 391.03 587.985 393.99C588.193 396.951 589.083 399.823 590.584 402.383C592.085 404.943 594.158 407.122 596.639 408.75C599.121 410.377 601.945 411.409 604.892 411.766C607.838 412.122 610.827 411.793 613.625 410.804C616.423 409.815 618.955 408.194 621.024 406.065C623.092 403.937 624.641 401.359 625.549 398.534C625.673 398.142 625.874 397.779 626.14 397.466C626.407 397.153 626.733 396.896 627.1 396.711L635.202 392.638L627.1 388.566C626.733 388.381 626.407 388.124 626.14 387.811C625.874 387.498 625.673 387.135 625.549 386.743C624.57 383.7 622.85 380.947 620.543 378.734C618.237 376.521 615.415 374.917 612.334 374.066C609.252 373.215 606.008 373.144 602.892 373.859C599.776 374.575 596.887 376.054 594.486 378.164Z" fill="#72C1E8"/>
<path d="M593.464 413.503C592.025 413.028 590.539 412.612 589.705 409.019C588.937 412.328 587.706 412.922 585.946 413.503C588.816 414.452 589.249 416.022 589.705 417.988C590.492 414.599 591.793 414.056 593.464 413.503Z" fill="#F0C020"/>
<path d="M632.112 368.099C630.673 367.623 629.188 367.208 628.354 363.614C627.585 366.924 626.354 367.518 624.595 368.099C627.464 369.047 627.897 370.618 628.354 372.584C629.14 369.194 630.44 368.652 632.112 368.099Z" fill="#F0C020"/>
<path d="M643.405 375.448C641.967 374.972 640.481 374.557 639.646 370.963C638.878 374.273 637.647 374.866 635.888 375.448C638.757 376.396 639.191 377.966 639.646 379.932C640.433 376.543 641.734 376 643.405 375.448Z" fill="#F0C020"/>
<path d="M682.054 326.495C680.615 326.019 679.129 325.603 678.295 322.01C677.526 325.32 676.295 325.913 674.536 326.495C677.406 327.443 677.839 329.013 678.295 330.979C679.081 327.59 680.382 327.047 682.054 326.495Z" fill="#F0C020"/>
<path d="M602.59 387.257L604.23 387.257C604.452 387.257 604.664 387.169 604.82 387.013C604.977 386.856 605.065 386.644 605.065 386.423L605.065 383.719C605.057 383.205 605.248 382.707 605.598 382.331C605.949 381.954 606.432 381.728 606.945 381.699C607.205 381.691 607.463 381.735 607.706 381.829C607.948 381.923 608.169 382.064 608.355 382.245C608.542 382.426 608.69 382.642 608.791 382.882C608.893 383.121 608.945 383.378 608.945 383.638C608.945 384.598 609.326 385.518 610.005 386.197C610.684 386.876 611.604 387.257 612.564 387.257L614.411 387.257L614.411 400.843L602.59 400.843C601.601 400.843 600.654 400.451 599.955 399.752C599.256 399.053 598.864 398.105 598.864 397.117L598.864 390.984C598.863 390.495 598.96 390.01 599.147 389.558C599.334 389.106 599.609 388.695 599.955 388.349C600.301 388.003 600.711 387.728 601.164 387.541C601.616 387.353 602.1 387.257 602.59 387.257Z" fill="#FFB69F"/>
<path d="M669.44 347.796L661.735 355.502L654.029 347.796C653.647 347.42 653.342 346.971 653.134 346.476C652.926 345.981 652.817 345.45 652.815 344.913C652.813 344.376 652.917 343.844 653.122 343.347C653.326 342.851 653.627 342.4 654.007 342.02C654.387 341.64 654.838 341.34 655.334 341.135C655.831 340.93 656.363 340.826 656.9 340.828C657.437 340.83 657.968 340.939 658.463 341.147C658.958 341.356 659.407 341.66 659.783 342.043L661.736 343.994L663.69 342.043C664.067 341.665 664.516 341.365 665.01 341.161C665.503 340.956 666.032 340.851 666.567 340.851C667.101 340.851 667.63 340.956 668.124 341.161C668.617 341.365 669.066 341.665 669.444 342.043C669.821 342.421 670.121 342.869 670.325 343.363C670.529 343.857 670.634 344.386 670.633 344.92C670.633 345.455 670.527 345.984 670.323 346.477C670.118 346.971 669.818 347.419 669.44 347.796Z" fill="#FC5D3D"/>
<path d="M661.734 362.932C661.475 362.932 661.227 362.829 661.044 362.646C660.861 362.463 660.758 362.214 660.758 361.955C660.758 361.696 660.861 361.448 661.044 361.265C661.227 361.082 661.475 360.979 661.734 360.979C662.019 360.979 662.307 360.97 662.591 360.953C662.849 360.937 663.103 361.025 663.297 361.197C663.491 361.369 663.609 361.611 663.624 361.869C663.64 362.128 663.552 362.382 663.38 362.576C663.208 362.77 662.966 362.887 662.708 362.903C662.386 362.922 662.058 362.932 661.734 362.932ZM665.547 361.497C665.507 361.376 665.49 361.247 665.499 361.119C665.508 360.991 665.542 360.866 665.599 360.752C665.657 360.637 665.736 360.534 665.833 360.45C665.93 360.366 666.042 360.302 666.164 360.261C667.884 359.69 669.472 358.777 670.831 357.578C672.304 356.282 673.484 354.687 674.294 352.9C675.103 351.112 675.523 349.173 675.526 347.211C675.526 340.678 670.961 335.083 664.424 333.606C664.175 333.546 663.959 333.39 663.823 333.173C663.688 332.955 663.643 332.692 663.7 332.442C663.756 332.191 663.909 331.973 664.125 331.835C664.341 331.696 664.603 331.648 664.854 331.701C672.287 333.381 677.478 339.759 677.478 347.211C677.476 349.45 676.997 351.663 676.074 353.702C675.151 355.742 673.805 357.562 672.125 359.042C670.57 360.415 668.754 361.459 666.785 362.114C666.663 362.155 666.535 362.171 666.407 362.162C666.278 362.154 666.153 362.12 666.038 362.062C665.923 362.005 665.821 361.926 665.736 361.829C665.652 361.732 665.588 361.619 665.547 361.497Z" fill="#F9E5AF"/>
<path d="M619.448 341.823C619.257 341.319 619.037 340.827 618.789 340.348C618.675 340.119 618.655 339.854 618.734 339.61C618.814 339.366 618.986 339.163 619.214 339.045C619.441 338.927 619.706 338.903 619.952 338.979C620.197 339.055 620.402 339.224 620.523 339.45C620.806 339.995 621.057 340.556 621.274 341.13C621.322 341.25 621.345 341.379 621.342 341.508C621.34 341.638 621.312 341.765 621.259 341.884C621.207 342.002 621.132 342.109 621.038 342.198C620.943 342.287 620.833 342.356 620.712 342.402C620.59 342.448 620.461 342.469 620.332 342.465C620.203 342.46 620.075 342.43 619.958 342.376C619.84 342.322 619.735 342.245 619.647 342.15C619.559 342.054 619.492 341.942 619.448 341.821L619.448 341.823ZM616.709 337.359C615.395 335.913 613.794 334.757 612.008 333.965C610.222 333.173 608.29 332.762 606.336 332.759C606.077 332.759 605.829 332.656 605.646 332.473C605.463 332.29 605.36 332.042 605.36 331.783C605.36 331.524 605.463 331.275 605.646 331.092C605.829 330.909 606.077 330.806 606.336 330.806C608.562 330.809 610.763 331.277 612.798 332.179C614.833 333.082 616.658 334.399 618.155 336.046C618.245 336.14 618.315 336.252 618.361 336.373C618.407 336.495 618.428 336.625 618.424 336.755C618.419 336.885 618.388 337.013 618.333 337.131C618.279 337.249 618.201 337.355 618.104 337.442C618.008 337.53 617.895 337.597 617.772 337.64C617.65 337.684 617.519 337.702 617.389 337.694C617.26 337.686 617.132 337.653 617.016 337.595C616.899 337.538 616.795 337.457 616.71 337.359L616.709 337.359Z" fill="#AFAFAF"/>
<path d="M591.508 392.639C591.51 390.406 591.988 388.2 592.909 386.166C593.829 384.132 595.172 382.317 596.848 380.842C596.944 380.757 597.056 380.692 597.177 380.651C597.298 380.609 597.427 380.592 597.555 380.6C597.683 380.608 597.808 380.641 597.923 380.697C598.038 380.754 598.141 380.832 598.226 380.929C598.311 381.025 598.376 381.137 598.418 381.258C598.459 381.379 598.477 381.508 598.469 381.636C598.46 381.764 598.427 381.889 598.371 382.004C598.315 382.119 598.236 382.222 598.14 382.307C595.713 384.436 594.114 387.351 593.622 390.542C593.13 393.732 593.777 396.994 595.45 399.755C597.122 402.516 599.713 404.6 602.769 405.642C605.824 406.683 609.149 406.615 612.16 405.451C612.28 405.405 612.407 405.383 612.535 405.387C612.664 405.39 612.79 405.419 612.907 405.471C613.024 405.524 613.13 405.599 613.218 405.692C613.306 405.785 613.375 405.895 613.421 406.014C613.466 406.134 613.488 406.262 613.485 406.39C613.481 406.518 613.452 406.645 613.4 406.762C613.348 406.879 613.273 406.984 613.18 407.072C613.086 407.161 612.977 407.23 612.857 407.275C610.48 408.191 607.915 408.515 605.384 408.219C602.854 407.923 600.433 407.015 598.332 405.574C596.23 404.133 594.511 402.203 593.322 399.949C592.133 397.696 591.511 395.187 591.508 392.639ZM615.141 405.078C615.064 404.975 615.009 404.857 614.978 404.733C614.947 404.608 614.942 404.478 614.961 404.351C614.98 404.224 615.024 404.102 615.091 403.993C615.157 403.883 615.245 403.787 615.348 403.711C615.64 403.496 615.927 403.267 616.2 403.028C616.396 402.858 616.651 402.773 616.909 402.791C617.167 402.809 617.408 402.928 617.578 403.124C617.748 403.319 617.834 403.574 617.816 403.832C617.798 404.091 617.679 404.331 617.483 404.502C617.171 404.775 616.84 405.038 616.507 405.283C616.404 405.359 616.286 405.414 616.162 405.445C616.037 405.476 615.908 405.482 615.781 405.463C615.654 405.444 615.533 405.401 615.423 405.334C615.313 405.268 615.217 405.181 615.141 405.078Z" fill="#C5E5FF"/>
<path d="M588.766 418.206C588.815 418.419 588.935 418.608 589.106 418.744C589.277 418.88 589.489 418.953 589.707 418.953C589.925 418.953 590.137 418.88 590.308 418.744C590.479 418.608 590.599 418.419 590.648 418.206C591.34 415.223 592.359 414.886 593.769 414.421C593.962 414.357 594.129 414.234 594.248 414.069C594.367 413.904 594.431 413.706 594.431 413.503C594.431 413.3 594.367 413.101 594.248 412.937C594.129 412.772 593.962 412.649 593.769 412.585C592.414 412.139 591.356 411.85 590.648 408.799C590.598 408.587 590.478 408.398 590.307 408.263C590.136 408.128 589.925 408.054 589.707 408.054C589.489 408.054 589.278 408.128 589.107 408.263C588.936 408.398 588.816 408.587 588.766 408.799C588.073 411.782 587.107 412.102 585.645 412.585C585.452 412.649 585.284 412.772 585.165 412.937C585.046 413.101 584.982 413.299 584.982 413.503C584.982 413.706 585.046 413.904 585.165 414.069C585.284 414.234 585.452 414.357 585.645 414.421C588.072 415.223 588.348 416.41 588.766 418.206ZM589.711 411.839C590.06 412.498 590.554 413.07 591.156 413.511C590.563 413.932 590.074 414.484 589.727 415.123C589.347 414.485 588.83 413.939 588.214 413.524C588.839 413.09 589.352 412.513 589.709 411.841L589.711 411.839Z" fill="black"/>
<path d="M632.415 367.182C631.061 366.736 630.003 366.447 629.295 363.396C629.244 363.184 629.124 362.995 628.953 362.86C628.783 362.725 628.571 362.652 628.353 362.652C628.136 362.652 627.924 362.725 627.753 362.86C627.583 362.995 627.462 363.184 627.412 363.396C626.72 366.379 625.754 366.698 624.291 367.182C624.099 367.246 623.931 367.369 623.812 367.534C623.693 367.698 623.629 367.896 623.629 368.1C623.629 368.303 623.693 368.501 623.812 368.666C623.931 368.83 624.099 368.954 624.291 369.018C626.72 369.82 626.995 371.007 627.412 372.803C627.462 373.016 627.582 373.205 627.753 373.341C627.923 373.476 628.135 373.55 628.353 373.55C628.572 373.55 628.783 373.476 628.954 373.341C629.125 373.205 629.245 373.016 629.295 372.803C629.987 369.82 631.006 369.483 632.415 369.018C632.608 368.954 632.776 368.83 632.895 368.666C633.014 368.501 633.078 368.303 633.078 368.1C633.078 367.896 633.014 367.698 632.895 367.534C632.776 367.369 632.608 367.246 632.415 367.182ZM628.373 369.721C627.993 369.082 627.476 368.536 626.86 368.121C627.486 367.687 627.999 367.109 628.357 366.437C628.706 367.096 629.2 367.668 629.802 368.108C629.209 368.53 628.72 369.081 628.373 369.72L628.373 369.721Z" fill="black"/>
<path d="M640.588 370.745C640.538 370.533 640.417 370.344 640.247 370.209C640.076 370.073 639.864 370 639.647 370C639.429 370 639.217 370.073 639.046 370.209C638.876 370.344 638.756 370.533 638.706 370.745C638.013 373.728 637.047 374.047 635.585 374.53C635.392 374.594 635.224 374.718 635.105 374.882C634.986 375.047 634.922 375.245 634.922 375.448C634.922 375.652 634.986 375.85 635.105 376.014C635.224 376.179 635.392 376.302 635.585 376.366C638.013 377.169 638.289 378.355 638.706 380.152C638.755 380.364 638.875 380.554 639.046 380.69C639.217 380.825 639.429 380.899 639.647 380.899C639.865 380.899 640.077 380.825 640.248 380.69C640.418 380.554 640.538 380.364 640.588 380.152C641.28 377.169 642.298 376.832 643.709 376.366C643.902 376.302 644.069 376.179 644.188 376.014C644.307 375.85 644.371 375.652 644.371 375.448C644.371 375.245 644.307 375.047 644.188 374.882C644.069 374.718 643.902 374.594 643.709 374.53C642.354 374.084 641.296 373.796 640.588 370.745ZM639.666 377.069C639.286 376.43 638.77 375.884 638.153 375.469C638.779 375.034 639.292 374.457 639.65 373.784C639.999 374.443 640.494 375.015 641.096 375.455C640.502 375.878 640.013 376.43 639.666 377.07L639.666 377.069Z" fill="black"/>
<path d="M682.357 325.577C681.002 325.131 679.944 324.842 679.236 321.791C679.186 321.579 679.065 321.39 678.895 321.255C678.724 321.12 678.512 321.046 678.294 321.046C678.077 321.046 677.865 321.12 677.694 321.255C677.524 321.39 677.403 321.579 677.353 321.791C676.661 324.775 675.695 325.094 674.233 325.577C674.04 325.641 673.872 325.764 673.753 325.929C673.633 326.093 673.569 326.292 673.569 326.495C673.569 326.698 673.633 326.896 673.753 327.061C673.872 327.226 674.04 327.349 674.233 327.413C676.661 328.215 676.937 329.402 677.353 331.198C677.403 331.411 677.523 331.6 677.694 331.736C677.865 331.872 678.076 331.946 678.295 331.946C678.513 331.946 678.725 331.872 678.896 331.736C679.066 331.6 679.186 331.411 679.236 331.198C679.928 328.215 680.946 327.878 682.357 327.413C682.549 327.349 682.717 327.226 682.836 327.061C682.955 326.896 683.019 326.698 683.019 326.495C683.019 326.292 682.955 326.094 682.836 325.929C682.717 325.764 682.549 325.641 682.357 325.577ZM678.314 328.116C677.935 327.477 677.418 326.929 676.801 326.514C677.427 326.08 677.94 325.502 678.298 324.83C678.647 325.489 679.141 326.06 679.743 326.501C679.15 326.924 678.661 327.476 678.314 328.116Z" fill="black"/>
<path d="M644.234 355.445C644.064 355.536 643.924 355.675 643.833 355.846C643.741 356.016 643.702 356.209 643.721 356.402C643.74 356.594 643.815 356.776 643.937 356.926C644.06 357.075 644.224 357.185 644.408 357.242C644.593 357.298 644.791 357.298 644.976 357.242C645.161 357.186 645.325 357.077 645.447 356.928C645.57 356.778 645.646 356.596 645.665 356.404C645.684 356.212 645.646 356.018 645.555 355.848C645.433 355.619 645.225 355.449 644.978 355.373C644.73 355.298 644.463 355.324 644.234 355.445Z" fill="black"/>
<path d="M675.133 331.969C672.604 329.746 669.561 328.188 666.28 327.435C662.998 326.681 659.581 326.756 656.336 327.652C653.09 328.549 650.119 330.238 647.689 332.569C645.26 334.9 643.448 337.799 642.418 341.004C642.333 341.273 642.195 341.522 642.012 341.737C641.83 341.953 641.607 342.13 641.355 342.258L633.23 346.34C633.069 346.421 632.934 346.546 632.84 346.7C632.745 346.853 632.695 347.03 632.695 347.211C632.695 347.391 632.745 347.568 632.84 347.722C632.934 347.876 633.069 348 633.23 348.082L641.355 352.164C641.77 352.375 642.104 352.717 642.305 353.137C642.422 353.366 642.623 353.541 642.866 353.626C643.109 353.71 643.375 353.697 643.609 353.59C643.725 353.534 643.828 353.456 643.913 353.36C643.999 353.264 644.064 353.152 644.106 353.031C644.148 352.91 644.166 352.782 644.159 352.654C644.151 352.526 644.118 352.401 644.062 352.285C643.673 351.48 643.029 350.825 642.23 350.422L635.844 347.211L642.23 344C642.714 343.756 643.144 343.417 643.496 343.005C643.847 342.592 644.113 342.114 644.277 341.598C645.523 337.722 648.024 334.37 651.384 332.072C654.745 329.774 658.775 328.659 662.839 328.904C666.903 329.149 670.77 330.739 673.831 333.424C676.891 336.109 678.971 339.736 679.743 343.734C680.515 347.731 679.934 351.872 678.093 355.503C676.252 359.135 673.255 362.05 669.574 363.79C665.893 365.53 661.738 365.996 657.763 365.113C653.788 364.231 650.22 362.052 647.621 358.918C647.451 358.725 647.214 358.605 646.958 358.582C646.703 358.558 646.448 358.634 646.246 358.793C646.047 358.959 645.922 359.197 645.899 359.455C645.875 359.712 645.955 359.969 646.121 360.168C647.908 362.322 650.122 364.083 652.623 365.34C655.123 366.598 657.857 367.324 660.652 367.473C663.447 367.623 666.243 367.193 668.864 366.21C671.484 365.227 673.873 363.712 675.881 361.761C677.888 359.811 679.469 357.466 680.526 354.874C681.584 352.282 682.093 349.5 682.023 346.702C681.952 343.903 681.304 341.15 680.118 338.615C678.933 336.079 677.235 333.816 675.133 331.969Z" fill="black"/>
<path d="M585.855 358.371C585.855 358.499 585.88 358.627 585.929 358.745C585.978 358.864 586.05 358.972 586.141 359.063C586.231 359.153 586.339 359.225 586.458 359.274C586.577 359.323 586.704 359.348 586.832 359.348L594.117 359.348C594.975 361.915 596.618 364.148 598.814 365.73C601.01 367.312 603.648 368.163 606.355 368.163C609.062 368.163 611.7 367.312 613.896 365.73C616.092 364.148 617.735 361.915 618.593 359.348L625.871 359.348C625.999 359.348 626.127 359.323 626.245 359.274C626.364 359.225 626.472 359.153 626.563 359.063C626.653 358.972 626.725 358.864 626.774 358.745C626.823 358.627 626.848 358.499 626.848 358.371L626.848 346.762C626.848 335.836 618.212 326.262 606.051 326.262C596.5 326.406 588.614 333.25 586.445 342.227C586.385 342.478 586.427 342.742 586.562 342.963C586.697 343.183 586.913 343.341 587.164 343.402C587.416 343.461 587.68 343.418 587.901 343.284C588.121 343.149 588.28 342.934 588.344 342.684C590.375 334.285 597.668 328.336 606.082 328.215C615.496 327.797 624.895 335.835 624.895 346.762L624.895 357.395L619.074 357.395C619.2 356.693 619.26 355.981 619.255 355.268L619.255 345.786C619.253 345.549 619.166 345.321 619.01 345.143C618.855 344.966 618.64 344.85 618.406 344.816C618.12 344.777 599.363 342.26 599.076 342.225C598.371 342.142 597.657 342.209 596.98 342.422C596.303 342.635 595.679 342.988 595.148 343.459C594.617 343.93 594.192 344.507 593.9 345.154C593.608 345.8 593.455 346.501 593.453 347.211L593.453 355.268C593.455 355.981 593.516 356.692 593.634 357.395L587.809 357.395L587.809 350.219C587.809 349.96 587.706 349.711 587.523 349.528C587.339 349.345 587.091 349.242 586.832 349.242C586.573 349.242 586.325 349.345 586.142 349.528C585.958 349.711 585.855 349.96 585.855 350.219L585.855 358.371ZM595.406 347.211C595.407 346.775 595.501 346.344 595.681 345.946C595.861 345.549 596.123 345.194 596.451 344.906C596.778 344.618 597.163 344.403 597.581 344.275C597.998 344.147 598.437 344.109 598.87 344.164C611.162 345.815 607.018 345.258 617.301 346.64L617.301 355.27C617.301 358.173 616.147 360.957 614.094 363.01C612.041 365.063 609.257 366.217 606.354 366.217C603.45 366.217 600.666 365.063 598.613 363.01C596.56 360.957 595.406 358.173 595.406 355.27L595.406 347.211Z" fill="black"/>
<path d="M586.852 347.293C587.128 347.312 587.4 347.222 587.61 347.042C587.82 346.861 587.95 346.605 587.972 346.33C587.994 346.054 587.907 345.78 587.729 345.569C587.55 345.357 587.296 345.224 587.02 345.199C586.745 345.174 586.47 345.259 586.257 345.435C586.043 345.611 585.908 345.864 585.88 346.139C585.852 346.415 585.934 346.69 586.108 346.905C586.282 347.12 586.534 347.258 586.809 347.289C586.823 347.292 586.837 347.294 586.852 347.293Z" fill="black"/>
<path d="M606.355 362.831C607.439 362.829 608.497 362.497 609.388 361.879C610.28 361.262 610.962 360.389 611.346 359.375C611.437 359.132 611.428 358.864 611.321 358.628C611.213 358.392 611.017 358.209 610.774 358.118C610.532 358.027 610.263 358.036 610.027 358.144C609.791 358.251 609.608 358.448 609.517 358.69C609.275 359.333 608.843 359.886 608.278 360.277C607.714 360.668 607.043 360.878 606.356 360.878C605.67 360.878 604.999 360.669 604.434 360.279C603.869 359.888 603.437 359.335 603.194 358.693C603.103 358.451 602.92 358.256 602.685 358.149C602.45 358.042 602.183 358.033 601.941 358.123C601.699 358.213 601.502 358.394 601.394 358.629C601.286 358.863 601.275 359.13 601.363 359.373C601.746 360.388 602.428 361.263 603.32 361.88C604.211 362.498 605.27 362.83 606.355 362.831Z" fill="black"/>
<path d="M599.84 351.816C600.099 351.816 600.347 351.713 600.53 351.53C600.714 351.347 600.816 351.098 600.816 350.839L600.816 350.016C600.816 349.757 600.714 349.508 600.53 349.325C600.347 349.142 600.099 349.039 599.84 349.039C599.581 349.039 599.332 349.142 599.149 349.325C598.966 349.508 598.863 349.757 598.863 350.016L598.863 350.839C598.863 351.098 598.966 351.347 599.149 351.53C599.332 351.713 599.581 351.816 599.84 351.816Z" fill="black"/>
<path d="M612.867 351.816C613.126 351.816 613.375 351.713 613.558 351.53C613.741 351.347 613.844 351.098 613.844 350.839L613.844 350.016C613.844 349.757 613.741 349.508 613.558 349.325C613.375 349.142 613.126 349.039 612.867 349.039C612.608 349.039 612.36 349.142 612.177 349.325C611.993 349.508 611.891 349.757 611.891 350.016L611.891 350.839C611.891 351.098 611.993 351.347 612.177 351.53C612.36 351.713 612.608 351.816 612.867 351.816Z" fill="black"/>
<path d="M606.354 355.577C606.613 355.577 606.861 355.474 607.044 355.291C607.227 355.107 607.33 354.859 607.33 354.6L607.33 350.839C607.33 350.58 607.227 350.332 607.044 350.149C606.861 349.966 606.613 349.863 606.354 349.863C606.095 349.863 605.846 349.966 605.663 350.149C605.48 350.332 605.377 350.58 605.377 350.839L605.377 354.6C605.377 354.859 605.48 355.107 605.663 355.291C605.846 355.474 606.095 355.577 606.354 355.577Z" fill="black"/>
<path d="M676.956 385.888C677.781 385.051 678.413 384.043 678.807 382.935C679.2 381.827 679.346 380.647 679.234 379.476C679.121 378.306 678.753 377.175 678.156 376.162C677.559 375.149 676.746 374.28 675.777 373.616L673.25 371.886C673.116 371.795 672.961 371.738 672.8 371.721C672.638 371.704 672.475 371.728 672.325 371.79C672.175 371.852 672.043 371.95 671.941 372.076C671.838 372.202 671.769 372.352 671.739 372.511C671.573 373.384 671.108 374.171 670.424 374.738C669.74 375.305 668.88 375.615 667.992 375.616L652.929 375.616C650.989 375.618 649.13 376.389 647.759 377.76C646.388 379.132 645.616 380.991 645.613 382.93L645.613 392.042L645.179 392.042C643.862 392.054 642.603 392.585 641.676 393.521C640.749 394.456 640.229 395.72 640.229 397.037C640.229 398.354 640.749 399.618 641.676 400.553C642.603 401.489 643.862 402.02 645.179 402.032L646.011 402.032C646.775 405.312 648.627 408.237 651.266 410.33C653.904 412.424 657.174 413.563 660.542 413.562L660.545 413.562C663.917 413.568 667.191 412.432 669.834 410.338C672.476 408.243 674.33 405.315 675.094 402.031L675.924 402.031C677.241 402.02 678.5 401.488 679.427 400.553C680.354 399.617 680.875 398.354 680.875 397.037C680.875 395.719 680.354 394.456 679.427 393.52C678.5 392.585 677.241 392.053 675.924 392.042L675.49 392.042L675.49 387.371L676.956 385.888ZM645.179 400.078C644.379 400.069 643.614 399.745 643.051 399.175C642.488 398.606 642.172 397.837 642.172 397.037C642.172 396.236 642.488 395.467 643.051 394.898C643.614 394.328 644.379 394.004 645.179 393.995L645.613 393.995L645.613 398.622C645.613 399.114 645.642 399.656 645.684 400.078L645.179 400.078ZM647.566 387.946L650.307 387.946L647.566 391.809L647.566 387.946ZM673.538 398.622C673.54 400.328 673.206 402.019 672.554 403.596C671.901 405.173 670.944 406.605 669.737 407.812C668.53 409.018 667.097 409.975 665.52 410.626C663.943 411.278 662.252 411.611 660.546 411.608L660.543 411.608C658.838 411.608 657.15 411.271 655.575 410.619C654 409.966 652.57 409.009 651.365 407.803C650.16 406.597 649.204 405.166 648.552 403.59C647.901 402.015 647.566 400.327 647.566 398.622L647.566 395.184L652.702 387.946L668.403 387.946L673.538 395.184L673.538 398.622ZM673.538 391.809L670.798 387.946L673.538 387.946L673.538 391.809ZM675.925 393.995C676.726 394.004 677.491 394.328 678.054 394.898C678.617 395.467 678.933 396.236 678.933 397.037C678.933 397.837 678.617 398.606 678.054 399.175C677.491 399.745 676.726 400.069 675.925 400.078L675.42 400.078C675.462 399.652 675.491 399.107 675.491 398.622C675.491 395.319 675.491 394.064 675.491 393.995L675.925 393.995ZM674.107 385.993L647.566 385.993L647.566 382.93C647.568 381.508 648.134 380.145 649.139 379.14C650.144 378.135 651.507 377.569 652.929 377.568L667.992 377.568C669.09 377.567 670.166 377.252 671.092 376.662C672.018 376.071 672.757 375.228 673.221 374.232L674.675 375.228C675.408 375.731 676.022 376.389 676.474 377.156C676.925 377.922 677.203 378.778 677.288 379.663C677.373 380.548 677.263 381.442 676.965 382.28C676.667 383.118 676.189 383.88 675.565 384.514L674.107 385.993Z" fill="black"/>
<path d="M664.965 402.191C664.722 402.106 664.455 402.117 664.22 402.225C663.985 402.332 663.802 402.526 663.707 402.766C663.465 403.406 663.034 403.958 662.471 404.347C661.908 404.736 661.239 404.945 660.555 404.945C659.87 404.945 659.202 404.736 658.639 404.347C658.075 403.958 657.644 403.406 657.402 402.766C657.308 402.526 657.125 402.333 656.891 402.226C656.657 402.119 656.391 402.106 656.149 402.191C655.906 402.281 655.708 402.463 655.6 402.699C655.491 402.934 655.481 403.202 655.57 403.445C655.57 403.446 655.571 403.447 655.572 403.448C655.572 403.449 655.573 403.449 655.574 403.449C655.955 404.463 656.636 405.336 657.526 405.952C658.416 406.568 659.472 406.898 660.555 406.898C661.637 406.898 662.694 406.568 663.584 405.952C664.474 405.336 665.155 404.463 665.535 403.449C665.626 403.207 665.617 402.938 665.51 402.703C665.403 402.467 665.207 402.283 664.965 402.191Z" fill="black"/>
<path d="M654.055 393.135C653.796 393.135 653.547 393.238 653.364 393.421C653.181 393.604 653.078 393.852 653.078 394.111L653.078 394.932C653.078 395.191 653.181 395.439 653.364 395.622C653.547 395.805 653.796 395.908 654.055 395.908C654.314 395.908 654.562 395.805 654.745 395.622C654.928 395.439 655.031 395.191 655.031 394.932L655.031 394.111C655.031 393.852 654.928 393.604 654.745 393.421C654.562 393.238 654.314 393.135 654.055 393.135Z" fill="black"/>
<path d="M667.05 393.135C666.791 393.135 666.542 393.238 666.359 393.421C666.176 393.604 666.073 393.852 666.073 394.111L666.073 394.932C666.073 395.191 666.176 395.439 666.359 395.622C666.542 395.805 666.791 395.908 667.05 395.908C667.309 395.908 667.557 395.805 667.74 395.622C667.923 395.439 668.026 395.191 668.026 394.932L668.026 394.111C668.026 393.852 667.923 393.604 667.74 393.421C667.557 393.238 667.309 393.135 667.05 393.135Z" fill="black"/>
<path d="M660.552 399.661C660.811 399.661 661.06 399.558 661.243 399.375C661.426 399.192 661.529 398.943 661.529 398.684L661.529 394.934C661.529 394.675 661.426 394.427 661.243 394.244C661.06 394.061 660.811 393.958 660.552 393.958C660.293 393.958 660.045 394.061 659.862 394.244C659.679 394.427 659.576 394.675 659.576 394.934L659.576 398.684C659.576 398.943 659.679 399.192 659.862 399.375C660.045 399.558 660.293 399.661 660.552 399.661Z" fill="black"/>
<path d="M626.481 386.445C624.915 381.58 621.568 377.487 617.111 374.987C612.653 372.487 607.416 371.765 602.448 372.967C597.481 374.168 593.151 377.204 590.329 381.464C587.506 385.725 586.4 390.895 587.231 395.937C587.248 396.067 587.291 396.192 587.358 396.304C587.425 396.417 587.513 396.515 587.618 396.592C587.724 396.67 587.843 396.725 587.97 396.756C588.098 396.786 588.23 396.791 588.358 396.77C588.487 396.748 588.611 396.701 588.721 396.631C588.832 396.561 588.927 396.47 589.001 396.362C589.076 396.255 589.128 396.133 589.154 396.005C589.181 395.877 589.182 395.745 589.156 395.617C588.996 394.633 588.915 393.638 588.914 392.641C588.914 388.281 590.471 384.064 593.304 380.75C596.138 377.437 600.062 375.245 604.37 374.569C608.677 373.893 613.084 374.778 616.797 377.064C620.509 379.351 623.283 382.888 624.617 387.039C624.782 387.554 625.048 388.031 625.399 388.443C625.749 388.855 626.178 389.193 626.66 389.437L633.027 392.641L626.66 395.84C626.178 396.085 625.749 396.423 625.399 396.834C625.048 397.246 624.782 397.723 624.617 398.238C623.552 401.54 621.571 404.471 618.904 406.689C616.237 408.908 612.995 410.323 609.554 410.769C606.114 411.215 602.618 410.675 599.473 409.21C596.329 407.745 593.665 405.417 591.793 402.496C591.649 402.282 591.429 402.132 591.177 402.077C590.925 402.021 590.662 402.065 590.441 402.199C590.333 402.268 590.24 402.358 590.167 402.463C590.094 402.568 590.042 402.687 590.015 402.812C589.987 402.937 589.985 403.067 590.008 403.193C590.031 403.319 590.079 403.439 590.149 403.547C592.219 406.783 595.166 409.363 598.648 410.986C602.129 412.61 606.001 413.209 609.81 412.715C613.62 412.221 617.21 410.653 620.162 408.195C623.113 405.736 625.305 402.489 626.481 398.832C626.564 398.564 626.701 398.315 626.883 398.101C627.064 397.887 627.288 397.712 627.539 397.586L635.641 393.512C635.803 393.431 635.939 393.306 636.034 393.152C636.129 392.997 636.18 392.82 636.18 392.639C636.18 392.457 636.129 392.28 636.034 392.126C635.939 391.971 635.803 391.847 635.641 391.766L627.539 387.695C627.288 387.569 627.064 387.393 626.882 387.178C626.701 386.963 626.564 386.714 626.481 386.445Z" fill="black"/>
<path d="M590.125 399.191C590.121 399.191 590.121 399.191 590.121 399.187C590.023 398.95 589.837 398.759 589.602 398.655C589.367 398.551 589.101 398.542 588.859 398.629C588.68 398.699 588.524 398.82 588.413 398.978C588.303 399.136 588.241 399.323 588.236 399.516C588.232 399.709 588.284 399.899 588.387 400.062C588.49 400.225 588.64 400.353 588.816 400.432C588.992 400.51 589.188 400.534 589.378 400.502C589.568 400.469 589.744 400.381 589.884 400.248C590.024 400.116 590.122 399.944 590.165 399.756C590.208 399.568 590.194 399.372 590.125 399.191Z" fill="black"/>
<path d="M602.59 388.234L604.231 388.234C604.711 388.233 605.171 388.042 605.51 387.703C605.85 387.363 606.041 386.903 606.041 386.423L606.041 383.719C606.033 383.459 606.126 383.205 606.299 383.011C606.473 382.816 606.715 382.696 606.975 382.675C607.104 382.671 607.232 382.693 607.353 382.739C607.473 382.786 607.583 382.856 607.675 382.946C607.768 383.036 607.842 383.143 607.892 383.262C607.942 383.381 607.968 383.509 607.968 383.638C607.969 384.243 608.09 384.842 608.323 385.4C608.556 385.959 608.896 386.466 609.325 386.893C609.754 387.319 610.263 387.657 610.822 387.888C611.382 388.118 611.981 388.235 612.586 388.234L614.411 388.234C614.67 388.234 614.919 388.131 615.102 387.948C615.285 387.764 615.388 387.516 615.388 387.257C615.388 386.998 615.285 386.75 615.102 386.566C614.919 386.383 614.67 386.28 614.411 386.28L612.563 386.28C611.863 386.28 611.191 386.001 610.695 385.506C610.2 385.01 609.921 384.339 609.92 383.638C609.921 383.247 609.843 382.861 609.69 382.501C609.538 382.141 609.316 381.816 609.035 381.544C608.755 381.272 608.423 381.059 608.059 380.918C607.694 380.777 607.306 380.71 606.915 380.723C606.149 380.762 605.427 381.095 604.9 381.654C604.374 382.212 604.082 382.952 604.088 383.719L604.088 386.28L602.59 386.28C601.343 386.282 600.148 386.778 599.266 387.659C598.385 388.541 597.889 389.736 597.887 390.983L597.887 397.116C597.889 398.361 598.383 399.555 599.263 400.437C600.143 401.318 601.336 401.815 602.581 401.819L614.411 401.819C614.67 401.819 614.918 401.716 615.101 401.533C615.284 401.35 615.387 401.102 615.387 400.843C615.387 400.584 615.284 400.335 615.101 400.152C614.918 399.969 614.67 399.866 614.411 399.866L602.59 399.866C601.876 399.865 601.19 399.586 600.678 399.089C600.165 398.592 599.867 397.914 599.845 397.201L603.87 397.201C604.129 397.201 604.377 397.098 604.56 396.915C604.744 396.732 604.847 396.483 604.847 396.224C604.847 395.965 604.744 395.717 604.56 395.534C604.377 395.351 604.129 395.248 603.87 395.248L599.84 395.248L599.84 392.853L603.87 392.853C604.129 392.853 604.377 392.75 604.56 392.567C604.744 392.384 604.847 392.136 604.847 391.877C604.847 391.618 604.744 391.369 604.56 391.186C604.377 391.003 604.129 390.9 603.87 390.9L599.844 390.9C599.866 390.186 600.165 389.509 600.677 389.011C601.19 388.513 601.876 388.235 602.59 388.234Z" fill="black"/>
<path d="M662.425 356.192L670.13 348.487C670.599 348.018 670.97 347.462 671.224 346.85C671.477 346.238 671.608 345.582 671.608 344.919C671.608 344.257 671.477 343.601 671.224 342.989C670.97 342.377 670.599 341.82 670.13 341.352C669.662 340.883 669.106 340.512 668.493 340.258C667.881 340.005 667.225 339.874 666.563 339.874C665.9 339.874 665.244 340.005 664.632 340.258C664.02 340.512 663.464 340.883 662.995 341.352L661.734 342.613L660.474 341.352C660.005 340.883 659.449 340.512 658.837 340.258C658.225 340.005 657.569 339.874 656.906 339.874C656.244 339.874 655.588 340.005 654.975 340.258C654.363 340.512 653.807 340.883 653.339 341.352C652.87 341.82 652.499 342.377 652.245 342.989C651.992 343.601 651.861 344.257 651.861 344.919C651.861 345.582 651.992 346.238 652.245 346.85C652.499 347.462 652.87 348.018 653.339 348.487L661.044 356.192C661.134 356.282 661.242 356.354 661.361 356.404C661.479 356.453 661.606 356.478 661.734 356.478C661.863 356.478 661.99 356.453 662.108 356.404C662.227 356.354 662.334 356.282 662.425 356.192ZM654.72 342.734C655.3 342.155 656.086 341.83 656.906 341.83C657.726 341.83 658.512 342.155 659.093 342.734L661.046 344.688C661.136 344.778 661.244 344.85 661.363 344.899C661.481 344.948 661.608 344.974 661.736 344.974C661.865 344.974 661.992 344.948 662.11 344.899C662.229 344.85 662.336 344.778 662.427 344.688L664.38 342.734C664.96 342.154 665.747 341.829 666.567 341.829C667.388 341.829 668.174 342.155 668.754 342.735C669.334 343.316 669.66 344.102 669.66 344.923C669.659 345.743 669.333 346.529 668.753 347.109L661.734 354.12L654.72 347.106C654.141 346.526 653.816 345.74 653.816 344.92C653.816 344.101 654.141 343.315 654.72 342.734Z" fill="black"/>
</g>
<g clip-path="url(#clip2)">
<path d="M329.016 198.473C351.712 197.065 374.409 197.065 397.105 198.473C399.163 198.601 400.858 200.147 401.165 202.186C403.157 215.42 403.157 228.655 401.165 241.889C400.858 243.928 399.163 245.474 397.105 245.602C374.408 247.01 351.712 247.01 329.016 245.602C326.958 245.474 325.262 243.928 324.956 241.889C322.964 228.655 322.964 215.42 324.956 202.186C325.262 200.147 326.958 198.601 329.016 198.473Z" fill="#95D6A4"/>
<path d="M337.176 240.737C337.176 236.629 333.846 233.299 329.738 233.299C329.444 233.299 329.155 233.318 328.87 233.351C328.203 225.821 328.203 218.254 328.87 210.723C329.155 210.756 329.444 210.775 329.738 210.775C333.846 210.775 337.176 207.445 337.176 203.338C337.176 203.203 337.172 203.069 337.165 202.936C345.795 202.527 354.474 202.317 363.06 202.317C371.353 202.317 379.732 202.51 388.07 202.892C388.061 203.04 388.055 203.188 388.055 203.338C388.055 207.445 391.385 210.775 395.493 210.775C396.094 210.775 396.678 210.702 397.238 210.568C397.923 218.201 397.923 225.873 397.238 233.507C396.678 233.372 396.094 233.299 395.493 233.299C391.385 233.299 388.055 236.629 388.055 240.737C388.055 240.886 388.061 241.035 388.07 241.182C379.732 241.565 371.353 241.758 363.06 241.758C354.474 241.758 345.795 241.548 337.165 241.138C337.172 241.005 337.176 240.872 337.176 240.737Z" fill="#78C2A4"/>
<path d="M363.061 236.097C371.663 236.097 378.636 229.802 378.636 222.037C378.636 214.272 371.663 207.978 363.061 207.978C354.459 207.978 347.486 214.272 347.486 222.037C347.486 229.802 354.459 236.097 363.061 236.097Z" fill="#78C2A4"/>
<path d="M339.176 225.882C341.299 225.882 343.021 224.161 343.021 222.038C343.021 219.914 341.299 218.193 339.176 218.193C337.053 218.193 335.332 219.914 335.332 222.038C335.332 224.161 337.053 225.882 339.176 225.882Z" fill="#78C2A4"/>
<path d="M386.945 225.882C389.069 225.882 390.79 224.161 390.79 222.038C390.79 219.914 389.069 218.193 386.945 218.193C384.822 218.193 383.101 219.914 383.101 222.038C383.101 224.161 384.822 225.882 386.945 225.882Z" fill="#78C2A4"/>
<path d="M396.583 211.244C409.81 211.244 420.533 200.521 420.533 187.295C420.533 174.068 409.81 163.346 396.583 163.346C383.357 163.346 372.634 174.068 372.634 187.295C372.634 200.521 383.357 211.244 396.583 211.244Z" fill="#D3EFFB"/>
<path d="M400.768 210.897C399.442 211.127 398.077 211.245 396.686 211.245C383.459 211.245 372.736 200.522 372.736 187.295C372.736 174.068 383.459 163.345 396.686 163.345C398.077 163.345 399.442 163.463 400.768 163.693C389.488 165.629 380.902 175.459 380.902 187.295C380.902 199.13 389.488 208.961 400.768 210.897Z" fill="#9DC6FB"/>
<path d="M396.583 190.346L385.457 190.346C383.772 190.346 382.406 188.98 382.406 187.295C382.406 185.61 383.772 184.244 385.457 184.244L396.583 184.244C398.268 184.244 399.634 185.61 399.634 187.295C399.634 188.98 398.268 190.346 396.583 190.346Z" fill="#365E7D"/>
<path d="M396.583 190.346C394.898 190.346 393.532 188.98 393.532 187.295L393.532 179.504C393.532 177.819 394.898 176.453 396.583 176.453C398.268 176.453 399.634 177.819 399.634 179.504L399.634 187.295C399.634 188.98 398.268 190.346 396.583 190.346Z" fill="#2B4D66"/>
<path d="M363.061 206.51C353.664 206.51 346.018 213.476 346.018 222.038C346.018 230.599 353.664 237.565 363.061 237.565C372.458 237.565 380.103 230.599 380.103 222.038C380.103 213.476 372.458 206.51 363.061 206.51ZM363.061 234.63C355.282 234.63 348.953 228.981 348.953 222.037C348.953 215.094 355.282 209.445 363.061 209.445C370.84 209.445 377.168 215.094 377.168 222.037C377.168 228.981 370.84 234.63 363.061 234.63Z" fill="black"/>
<path d="M339.176 216.726C336.247 216.726 333.864 219.108 333.864 222.038C333.864 224.967 336.247 227.349 339.176 227.349C342.105 227.349 344.488 224.967 344.488 222.038C344.488 219.108 342.105 216.726 339.176 216.726ZM339.176 224.415C337.865 224.415 336.799 223.348 336.799 222.037C336.799 220.726 337.865 219.66 339.176 219.66C340.487 219.66 341.553 220.726 341.553 222.037C341.553 223.348 340.487 224.415 339.176 224.415Z" fill="black"/>
<path d="M386.945 216.726C384.016 216.726 381.633 219.108 381.633 222.038C381.633 224.967 384.016 227.349 386.945 227.349C389.874 227.349 392.257 224.967 392.257 222.038C392.257 219.108 389.874 216.726 386.945 216.726ZM386.945 224.415C385.634 224.415 384.568 223.348 384.568 222.037C384.568 220.726 385.634 219.66 386.945 219.66C388.256 219.66 389.322 220.726 389.322 222.037C389.322 223.348 388.256 224.415 386.945 224.415Z" fill="black"/>
<path d="M365.173 220.55C363.611 220.096 361.881 219.545 360.896 218.908C360.553 218.687 360.532 218.336 360.574 218.081C360.654 217.599 361.059 217.004 361.953 216.782C363.037 216.513 363.932 216.639 364.544 216.826C365.133 217.005 365.77 216.802 366.143 216.312C366.758 215.502 366.383 214.326 365.41 214.025C365.113 213.933 364.783 213.852 364.424 213.793L364.424 213.327C364.424 212.516 363.767 211.859 362.957 211.859C362.146 211.859 361.489 212.516 361.489 213.327L361.489 213.878C361.409 213.895 361.328 213.913 361.246 213.933C359.373 214.398 357.973 215.837 357.679 217.599C357.426 219.116 358.049 220.563 359.304 221.373C360.354 222.052 361.817 222.63 364.353 223.368C365.537 223.713 366.149 224.39 366.032 225.226C365.893 226.225 364.765 227.291 362.949 227.301C361.226 227.31 360.644 227.234 359.304 226.512C358.537 226.1 357.568 226.438 357.24 227.273C356.962 227.977 357.304 228.772 357.971 229.128C359.341 229.859 360.317 230.117 361.489 230.2L361.489 230.747C361.489 231.558 362.146 232.215 362.957 232.215C363.767 232.215 364.424 231.558 364.424 230.747L364.424 230.084C367.062 229.534 368.668 227.57 368.939 225.632C369.186 223.866 368.348 221.475 365.173 220.55Z" fill="black"/>
<path d="M422 187.295C422 173.28 410.598 161.878 396.583 161.878C382.569 161.878 371.167 173.28 371.167 187.295C371.167 190.365 371.714 193.31 372.716 196.037C358.17 195.781 343.45 196.107 328.925 197.01C326.191 197.179 323.91 199.264 323.503 201.967C321.499 215.286 321.499 228.791 323.503 242.108C323.91 244.81 326.19 246.896 328.924 247.067C330.055 247.138 331.187 247.205 332.317 247.268C332.345 247.269 332.372 247.27 332.4 247.27C333.173 247.27 333.82 246.665 333.864 245.884C333.909 245.075 333.289 244.383 332.48 244.338C331.356 244.275 330.231 244.209 329.108 244.139C327.744 244.053 326.608 243.015 326.405 241.671C324.445 228.644 324.445 215.433 326.405 202.405C326.608 201.06 327.744 200.023 329.107 199.939C344.008 199.013 359.116 198.698 374.026 198.997C374.381 199.679 374.765 200.343 375.179 200.987C371.12 200.897 367.056 200.849 363.06 200.849C354.541 200.849 345.806 201.058 337.096 201.471C336.288 201.509 335.664 202.194 335.7 203.002C335.705 203.113 335.708 203.225 335.708 203.338C335.708 206.631 333.03 209.309 329.739 209.309C329.517 209.309 329.288 209.295 329.04 209.266C328.646 209.22 328.251 209.336 327.943 209.586C327.636 209.836 327.443 210.2 327.408 210.594C326.736 218.187 326.736 225.887 327.408 233.48C327.443 233.875 327.636 234.239 327.943 234.489C328.251 234.738 328.646 234.854 329.04 234.808C329.274 234.781 329.509 234.767 329.739 234.767C333.03 234.767 335.708 237.445 335.708 240.736C335.708 240.849 335.705 240.961 335.7 241.072C335.664 241.88 336.288 242.565 337.096 242.603C345.763 243.016 354.499 243.225 363.06 243.225C371.337 243.225 379.774 243.031 388.137 242.648C388.531 242.63 388.901 242.455 389.164 242.161C389.427 241.867 389.56 241.48 389.535 241.086C389.526 240.96 389.522 240.845 389.522 240.736C389.522 237.445 392.201 234.767 395.494 234.767C395.964 234.767 396.436 234.823 396.896 234.934C397.31 235.033 397.748 234.948 398.095 234.699C398.441 234.45 398.662 234.063 398.7 233.638C399.326 226.664 399.385 219.596 398.877 212.607C399.535 212.547 400.186 212.463 400.829 212.355C401.55 222.091 401.177 231.944 399.714 241.671C399.512 243.015 398.376 244.053 397.015 244.138C377.529 245.345 357.782 245.511 338.323 244.632C337.504 244.594 336.828 245.222 336.791 246.032C336.754 246.841 337.381 247.527 338.191 247.564C346.426 247.936 354.712 248.122 363.008 248.122C374.421 248.122 385.853 247.77 397.197 247.067C399.93 246.896 402.209 244.81 402.616 242.108C404.134 232.015 404.502 221.789 403.72 211.69C414.271 208.598 422 198.833 422 187.295ZM395.905 231.842C395.768 231.836 395.631 231.832 395.493 231.832C390.907 231.832 387.118 235.317 386.639 239.777C378.767 240.118 370.842 240.29 363.06 240.29C354.99 240.29 346.763 240.103 338.587 239.735C338.105 235.451 334.571 232.077 330.217 231.845C329.712 225.331 329.712 218.746 330.217 212.231C334.571 211.999 338.105 208.625 338.587 204.34C346.801 203.971 355.028 203.784 363.06 203.784C367.793 203.784 372.621 203.85 377.424 203.977C381.956 209.175 388.563 212.519 395.941 212.703C396.409 219.061 396.397 225.486 395.905 231.842ZM409.067 205.983L408.313 204.676C407.908 203.974 407.011 203.734 406.308 204.139C405.607 204.544 405.366 205.442 405.771 206.143L406.528 207.453C403.942 208.734 401.078 209.531 398.051 209.727L398.051 206.178C398.051 205.368 397.394 204.711 396.583 204.711C395.773 204.711 395.116 205.368 395.116 206.178L395.116 209.727C392.09 209.531 389.224 208.734 386.639 207.453L387.395 206.143C387.801 205.442 387.56 204.544 386.858 204.139C386.156 203.734 385.259 203.974 384.854 204.676L384.1 205.983C381.649 204.34 379.538 202.229 377.896 199.779L379.202 199.024C379.904 198.619 380.144 197.722 379.739 197.02C379.334 196.318 378.436 196.078 377.735 196.483L376.424 197.239C375.144 194.654 374.347 191.789 374.151 188.762L377.7 188.762C378.51 188.762 379.167 188.105 379.167 187.295C379.167 186.484 378.51 185.827 377.7 185.827L374.151 185.827C374.347 182.801 375.144 179.936 376.424 177.35L377.735 178.107C377.966 178.24 378.218 178.303 378.467 178.303C378.974 178.303 379.467 178.04 379.739 177.57C380.144 176.868 379.904 175.97 379.202 175.565L377.895 174.811C379.538 172.36 381.649 170.249 384.099 168.607L384.854 169.914C385.125 170.384 385.619 170.647 386.126 170.647C386.375 170.647 386.627 170.584 386.858 170.451C387.56 170.045 387.8 169.148 387.395 168.446L386.639 167.136C389.224 165.856 392.089 165.058 395.116 164.862L395.116 168.412C395.116 169.222 395.773 169.879 396.583 169.879C397.394 169.879 398.051 169.222 398.051 168.412L398.051 164.862C401.077 165.058 403.942 165.856 406.528 167.136L405.771 168.446C405.366 169.148 405.606 170.045 406.308 170.451C406.54 170.584 406.792 170.647 407.041 170.647C407.548 170.647 408.041 170.384 408.313 169.914L409.067 168.607C411.518 170.249 413.629 172.36 415.271 174.811L413.965 175.565C413.263 175.97 413.022 176.868 413.427 177.57C413.699 178.04 414.192 178.303 414.7 178.303C414.948 178.303 415.201 178.24 415.432 178.107L416.742 177.35C418.023 179.936 418.82 182.801 419.016 185.827L415.467 185.827C414.656 185.827 413.999 186.484 413.999 187.295C413.999 188.105 414.656 188.762 415.467 188.762L419.016 188.762C418.82 191.789 418.023 194.654 416.742 197.239L415.432 196.483C414.73 196.077 413.832 196.318 413.427 197.02C413.022 197.722 413.263 198.619 413.964 199.024L415.271 199.779C413.629 202.229 411.518 204.34 409.067 205.983Z" fill="black"/>
<path d="M399.634 180.971C398.824 180.971 398.167 181.628 398.167 182.439L398.167 187.295C398.167 188.168 397.456 188.878 396.582 188.878C395.709 188.878 394.999 188.168 394.999 187.295L394.999 179.504C394.999 178.631 395.709 177.921 396.582 177.921C396.884 177.921 397.177 178.006 397.43 178.168C398.113 178.604 399.021 178.404 399.456 177.721C399.893 177.038 399.693 176.131 399.01 175.694C398.285 175.231 397.445 174.986 396.582 174.986C394.091 174.986 392.065 177.013 392.065 179.504L392.065 182.776L385.456 182.776C382.964 182.776 380.937 184.803 380.937 187.295C380.937 189.786 382.964 191.813 385.456 191.813L396.583 191.813L396.583 191.812C399.075 191.812 401.102 189.786 401.102 187.295L401.102 182.439C401.102 181.628 400.445 180.971 399.634 180.971ZM383.872 187.295C383.872 186.421 384.583 185.711 385.456 185.711L392.065 185.711L392.065 187.295C392.065 187.852 392.167 188.385 392.352 188.878L385.456 188.878C384.583 188.878 383.872 188.168 383.872 187.295Z" fill="black"/>
</g>
<path d="M72.5 53.125C74.0469 55.5781 75.2031 58.3125 75.8594 61.2187L79.6875 62.5L79.6875 71.875L75.8594 73.1562C75.2031 76.0625 74.0469 78.7969 72.5 81.25L74.3125 84.8594L67.6719 91.5L64.0625 89.6875C61.6094 91.2344 58.875 92.3906 55.9688 93.0469L54.6875 96.875L45.3125 96.875L44.0313 93.0469C41.125 92.3906 38.3906 91.2344 35.9375 89.6875L32.3281 91.5L25.6875 84.8594L27.5 81.25C25.9531 78.7969 24.7969 76.0625 24.1406 73.1562L20.3125 71.875L20.3125 62.5L24.1406 61.2187C24.7969 58.3125 25.9531 55.5781 27.5 53.125L25.6875 49.5156L27.9219 47.2812C28.7813 48.3281 29.7188 49.3281 30.7344 50.25L34.7031 53.8437C31.5938 57.4219 29.6875 62.0781 29.6875 67.1875C29.6875 74.375 33.4219 80.6875 39.0625 84.2969C42.2188 86.3281 45.9688 87.5 50 87.5C54.0313 87.5 57.7813 86.3281 60.9375 84.2969C66.5781 80.6875 70.3125 74.375 70.3125 67.1875C70.3125 62.0781 68.4063 57.4219 65.2969 53.8437L69.2656 50.25C70.2813 49.3281 71.2188 48.3281 72.0781 47.2812L74.3125 49.5156L72.5 53.125Z" fill="#FFC729"/>
<path d="M60.9375 84.2812L60.9375 84.2969C57.7813 86.3281 54.0313 87.5 50 87.5C45.9688 87.5 42.2188 86.3281 39.0625 84.2969L39.0625 84.2812L39.0625 75L60.9375 75L60.9375 84.2812Z" fill="#AAB2BD"/>
<path d="M60.9375 68.75C62.6563 68.75 64.0625 70.1562 64.0625 71.875C64.0625 72.7344 63.7188 73.5156 63.1406 74.0781C62.5781 74.6562 61.7969 75 60.9375 75L39.0625 75C37.3438 75 35.9375 73.5937 35.9375 71.875C35.9375 71.0156 36.2813 70.2344 36.8594 69.6719C37.4219 69.0937 38.2031 68.75 39.0625 68.75L60.9375 68.75Z" fill="#CCD1D9"/>
<path d="M60.9375 62.5C62.6563 62.5 64.0625 63.9062 64.0625 65.625C64.0625 66.4844 63.7188 67.2656 63.1406 67.8281C62.5781 68.4062 61.7969 68.75 60.9375 68.75L39.0625 68.75C37.3438 68.75 35.9375 67.3437 35.9375 65.625C35.9375 64.7656 36.2813 63.9844 36.8594 63.4219C37.4219 62.8437 38.2031 62.5 39.0625 62.5L43.75 62.5L50 62.5L56.25 62.5L60.9375 62.5Z" fill="#CCD1D9"/>
<path d="M27.9219 47.2812C26.4063 45.4062 25.1563 43.3437 24.1875 41.1562C22.6875 37.75 21.875 34.0312 21.875 30.2031C21.875 28.4219 22.0469 26.6875 22.375 25L42.1875 25C43.0469 25 43.75 25.7031 43.75 26.5625L43.75 62.5L39.0625 62.5C39.0625 59.5156 37.7969 56.6719 35.5938 54.6562L34.7031 53.8437L30.7344 50.25C29.7188 49.3281 28.7813 48.3281 27.9219 47.2812Z" fill="#E6E9ED"/>
<path d="M77.625 25L56.25 25C52.7969 25 50 27.7969 50 31.25L50 25C50 21.5469 47.2031 18.75 43.75 18.75L24.4062 18.75C28.7344 9.51561 38.0937 3.12498 48.9531 3.12498L51.0469 3.12498C64.2187 3.12498 75.2031 12.5312 77.625 25Z" fill="#E6E9ED"/>
<path d="M72.0781 47.2812C71.2188 48.3281 70.2813 49.3281 69.2656 50.25L65.2969 53.8437L64.4063 54.6562C62.2031 56.6719 60.9375 59.5156 60.9375 62.5L56.25 62.5L56.25 32.8125C56.25 31.9531 56.9531 31.25 57.8125 31.25L78.1094 31.25C77.875 37.1406 75.75 42.75 72.0781 47.2812Z" fill="#E6E9ED"/>
<path d="M50 31.25L50 62.5L43.75 62.5L43.75 26.5625C43.75 25.7031 43.0469 25 42.1875 25L22.375 25L15.625 25L15.625 31.25L4.45313 24.2656C3.625 23.75 3.125 22.8437 3.125 21.875C3.125 20.9062 3.625 20 4.45313 19.4844L15.625 12.5L15.625 18.75L24.4063 18.75L43.75 18.75C47.2031 18.75 50 21.5469 50 25L50 31.25Z" fill="#FF826E"/>
<path d="M95.5469 25.7344C96.375 26.25 96.875 27.1562 96.875 28.125C96.875 29.0937 96.375 30 95.5469 30.5156L84.375 37.5L84.375 31.25L78.1094 31.25L57.8125 31.25C56.9531 31.25 56.25 31.9531 56.25 32.8125L56.25 62.5L50 62.5L50 31.25C50 27.7969 52.7969 25 56.25 25L77.625 25L84.375 25L84.375 18.75L95.5469 25.7344Z" fill="#FF826E"/>
<path d="M68.0078 21.0531L70.7578 19.5656C66.8328 12.3156 59.2797 7.81248 51.0422 7.81248L50 7.81248L50 10.9375L51.0422 10.9375C58.1313 10.9375 64.6328 14.8125 68.0078 21.0531Z" fill="black"/>
<path d="M47.125 11.025L46.8234 7.9156C45.689 8.02498 44.5578 8.22342 43.4578 8.50467L44.2328 11.5328C45.1765 11.2906 46.15 11.1203 47.125 11.025Z" fill="black"/>
<path d="M96.3797 24.4094L82.8125 15.9312L82.8125 23.4375L78.8531 23.4375C75.7625 10.6922 64.2859 1.56248 51.0422 1.56248L48.9578 1.56248C38.2188 1.56248 28.3281 7.66873 23.4563 17.1875L17.1875 17.1875L17.1875 9.68124L3.62032 18.1594C2.33125 18.9656 1.5625 20.3547 1.5625 21.875C1.5625 23.3953 2.33125 24.7844 3.62032 25.5906L17.1875 34.0687L17.1875 26.5625L20.5719 26.5625C20.4188 27.7703 20.3125 28.9875 20.3125 30.2078C20.3125 36.3312 22.2984 42.2578 25.8641 47.1297L23.7922 49.2015L25.7156 53.0469C24.4359 55.239 23.4656 57.5765 22.8219 60.0156L18.75 61.3734L18.75 73L22.8219 74.3578C23.4641 76.7969 24.4344 79.1344 25.7156 81.3265L23.7922 85.1719L32.0156 93.3937L35.8609 91.4719C38.0531 92.7515 40.3906 93.7219 42.8297 94.3641L44.1859 98.4375L55.8125 98.4375L57.1703 94.3656C59.6094 93.7234 61.9469 92.7531 64.1391 91.4734L67.9844 93.3953L76.2078 85.1734L74.2844 81.3281C75.5641 79.1359 76.5344 76.7984 77.1781 74.3594L81.25 73.0015L81.25 61.375L77.1781 60.0172C76.5359 57.5781 75.5656 55.2406 74.2844 53.0484L76.2078 49.2031L74.1391 47.1344C77.1859 42.9609 79.0531 37.9859 79.5313 32.814L82.8125 32.814L82.8125 40.3203L96.3797 31.8422C97.6688 31.0344 98.4375 29.6453 98.4375 28.125C98.4375 26.6047 97.6688 25.2156 96.3797 24.4094ZM48.9578 4.68748L51.0422 4.68748C62.5859 4.68748 72.6344 12.4687 75.6422 23.4375L56.25 23.4375C54.4844 23.4375 52.8719 24.0484 51.5625 25.0406L51.5625 25C51.5625 20.6922 48.0578 17.1875 43.75 17.1875L27.0219 17.1875C31.5859 9.52655 39.9344 4.68748 48.9578 4.68748ZM60.9375 64.0625C61.8 64.0625 62.5 64.764 62.5 65.625C62.5 66.4859 61.8 67.1875 60.9375 67.1875L39.0625 67.1875C38.2 67.1875 37.5 66.4859 37.5 65.625C37.5 64.764 38.2 64.0625 39.0625 64.0625L60.9375 64.0625ZM65.1297 56.1469C67.4719 59.3484 68.75 63.2109 68.75 67.1875C68.75 72.7219 66.325 77.6875 62.5 81.1234L62.5 76.275C64.3141 75.6281 65.625 73.9094 65.625 71.875C65.625 70.6703 65.1547 69.5812 64.4063 68.75C65.1563 67.9187 65.625 66.8297 65.625 65.625C65.625 63.6265 64.3625 61.9281 62.5969 61.2562C62.8672 59.3297 63.7531 57.5344 65.1297 56.1469ZM34.8703 56.1469C36.2469 57.5344 37.1328 59.3297 37.4031 61.2562C35.6375 61.9281 34.375 63.6265 34.375 65.625C34.375 66.8297 34.8453 67.9187 35.5938 68.75C34.8438 69.5812 34.375 70.6703 34.375 71.875C34.375 73.9094 35.6859 75.6281 37.5 76.275L37.5 81.1234C33.675 77.689 31.25 72.7219 31.25 67.1875C31.25 63.2109 32.5281 59.3484 34.8703 56.1469ZM62.5 71.875C62.5 72.7359 61.8 73.4375 60.9375 73.4375L39.0625 73.4375C38.2 73.4375 37.5 72.7359 37.5 71.875C37.5 71.014 38.2 70.3125 39.0625 70.3125L60.9375 70.3125C61.8 70.3125 62.5 71.014 62.5 71.875ZM40.625 76.5625L59.375 76.5625L59.375 83.4C56.6141 85.0031 53.4172 85.9375 50 85.9375C46.5828 85.9375 43.3859 85.0031 40.625 83.4L40.625 76.5625ZM14.0625 23.4375L14.0625 28.4312L5.27813 22.9406C4.90938 22.7094 4.6875 22.3109 4.6875 21.875C4.6875 21.439 4.90938 21.0406 5.27813 20.8094L14.0625 15.3187L14.0625 20.3125L43.75 20.3125C46.3344 20.3125 48.4375 22.4156 48.4375 25L48.4375 31.25L48.4375 60.9375L45.3125 60.9375L45.3125 26.5625C45.3125 24.839 43.9109 23.4375 42.1875 23.4375L14.0625 23.4375ZM23.7266 26.5625L42.1875 26.5625L42.1875 60.9375L40.5125 60.9375C40.1422 58.0984 38.7859 55.4484 36.6469 53.5031L31.7938 49.089C26.4813 44.2656 23.4375 37.3812 23.4375 30.2078C23.4375 28.9859 23.5531 27.7687 23.7266 26.5625ZM72.4063 49.8187L70.7125 53.2062L71.1781 53.95C72.6594 56.3156 73.725 58.8812 74.3438 61.5765L74.5406 62.4312L78.125 63.6265L78.125 70.75L74.5406 71.9453L74.3438 72.8C73.725 75.4953 72.6594 78.0609 71.1781 80.4265L70.7125 81.1703L72.4063 84.5578L67.3688 89.5937L63.9828 87.9016L63.2375 88.3672C60.8719 89.85 58.3063 90.914 55.6109 91.5328L54.7547 91.7281L53.5609 95.3125L46.4375 95.3125L45.2422 91.7281L44.3859 91.5328C41.6906 90.914 39.125 89.8484 36.7594 88.3672L36.0141 87.9016L32.6281 89.5937L27.5906 84.5578L29.2844 81.1703L28.8188 80.4265C27.3375 78.0609 26.2719 75.4953 25.6531 72.8L25.4563 71.9453L21.875 70.7484L21.875 63.625L25.4594 62.4297L25.6563 61.575C26.275 58.8797 27.3406 56.314 28.8219 53.9484L29.2875 53.2047L27.5938 49.8172L27.8594 49.5515C28.4438 50.189 29.0453 50.814 29.6891 51.4L32.5719 54.0203C29.7016 57.814 28.125 62.4265 28.125 67.1875C28.125 79.25 37.9375 89.0625 50 89.0625C62.0625 89.0625 71.875 79.25 71.875 67.1875C71.875 62.4265 70.2984 57.814 67.4281 54.0234L70.3109 51.4031C70.9547 50.8187 71.5609 50.1969 72.1453 49.5578L72.4063 49.8187ZM68.2078 49.0906L63.3547 53.5031C61.2156 55.4484 59.8594 58.0984 59.4891 60.9375L57.8125 60.9375L57.8125 32.8125L76.3984 32.8125C75.7531 39.0172 72.8406 44.8797 68.2078 49.0906ZM94.7219 29.1906L85.9375 34.6812L85.9375 29.6875L57.8125 29.6875C56.0891 29.6875 54.6875 31.089 54.6875 32.8125L54.6875 60.9375L51.5625 60.9375L51.5625 31.25C51.5625 28.6656 53.6656 26.5625 56.25 26.5625L85.9375 26.5625L85.9375 21.5687L94.7219 27.0594C95.0906 27.2906 95.3125 27.689 95.3125 28.125C95.3125 28.5609 95.0906 28.9594 94.7219 29.1906Z" fill="black"/>
<defs>
<clipPath id="clip0">
<rect width="100" height="100" fill="white" transform="translate(850 463)"/>
</clipPath>
<clipPath id="clip1">
<rect width="100" height="100" fill="white" transform="translate(584 320)"/>
</clipPath>
<clipPath id="clip2">
<rect width="100" height="100" fill="white" transform="translate(322 155)"/>
</clipPath>
</defs>
</svg>
