<?xml version="1.0"?>
<svg xmlns="http://www.w3.org/2000/svg" id="filled_outline" data-name="filled outline" viewBox="0 0 512 512" width="512" height="512"><rect x="152" y="120" width="192" height="192" style="fill:#c69324"/><rect x="192" y="208" width="48" height="40" style="fill:#f5c99d"/><path d="M200,176h32a8,8,0,0,1,8,8v24a0,0,0,0,1,0,0H192a0,0,0,0,1,0,0V184A8,8,0,0,1,200,176Z" style="fill:#cc4c4d"/><rect x="48" y="64" width="48" height="48" style="fill:#f5c99d"/><path d="M56,32H88a8,8,0,0,1,8,8V64a0,0,0,0,1,0,0H48a0,0,0,0,1,0,0V40A8,8,0,0,1,56,32Z" style="fill:#cc4c4d"/><path d="M182.99828,384l-14.38983,38.37729a8.00006,8.00006,0,0,1-1.83389,2.84815l-44.43141,44.43141A8,8,0,0,1,116.68629,472H103.54551a8,8,0,0,1-6.50986-12.64991L127.19714,417.124a8,8,0,0,0,1.18233-2.45214L144,360V344h40Z" style="fill:#b0a9a5"/><path d="M144,320v35.88306a8,8,0,0,0,3.35009,6.50986l48.8304,34.87886a8,8,0,0,1,3.30117,7.39332l-6.49461,58.45145A8,8,0,0,0,200.93812,472h9.10963a8,8,0,0,0,7.66262-5.70122l21.378-71.26a8.00005,8.00005,0,0,0-.5072-5.8765L208,328v-8Z" style="fill:#efe8e0"/><path d="M304,312v24H288l-38.44813-7.68963a7.99994,7.99994,0,0,1-2.86867-1.18824L229.45694,315.638a8,8,0,0,0-10.09445.99955L208,328H144V305.54066a7.99994,7.99994,0,0,1,.57219-2.97113l14.59466-36.48665a8.00005,8.00005,0,0,1,2.62781-3.42888l27.46678-20.60008a8,8,0,0,1,6.11519-1.49115l40.97933,6.82989a8,8,0,0,1,5.54475,3.77518l21.293,35.48838a8.00014,8.00014,0,0,0,2.05995,2.284L296,312Z" style="fill:#4fbfcb"/><path d="M19.5624,114.9584,48,96l44.5813,7.43022a8,8,0,0,1,5.34121,3.45355l29.63808,44.45712a8.0006,8.0006,0,0,0,.99955,1.21925L152,176v24l-37.62483-7.525a8,8,0,0,1-4.08793-2.18779L85.65685,165.65685a8,8,0,0,0-11.3137,0L64.918,175.082a8.00013,8.00013,0,0,0-1.49856,2.07914l-5.20827,10.41655A8,8,0,0,1,51.05573,192H16V121.6148A8,8,0,0,1,19.5624,114.9584Z" style="fill:#4fbfcb"/><path d="M56,192l30.84885,77.12211a8.00008,8.00008,0,0,1,.06282,5.78012L65.94663,330.809A8,8,0,0,1,58.456,336H49.06226a8,8,0,0,1-7.93823-8.99228l6.47511-51.80088a8,8,0,0,0-1.53822-5.79228l-28.461-37.948a8,8,0,0,1-1.6-4.8L16,192Z" style="fill:#efe8e0"/><polygon points="115.636 192.728 152 200 152 176 133.333 157.333 115.636 192.728" style="fill:#f5c99d"/><polygon points="252.103 328.82 288 336 304 336 304 312 296 312 272 294 252.103 328.82" style="fill:#f5c99d"/><circle cx="384" cy="368" r="104" style="fill:#eebf3e"/><path d="M384,256a111.54215,111.54215,0,0,0-32,4.7168V120a7.99539,7.99539,0,0,0-8-8H152a7.99539,7.99539,0,0,0-8,8v36.6875l-9.78125-9.78125L104.57031,102.4375c-.1665-.25-.39013-.44971-.57031-.689V40A16.02085,16.02085,0,0,0,88,24H56A16.02085,16.02085,0,0,0,40,40V91.72119L19.5625,105.34375l8.875,13.3125,21.36719-14.24219,41.46093,6.90625,29.625,44.42969a15.55515,15.55515,0,0,0,2.01563,2.46875l.69434.69434-11.12793,22.24707L91.3125,160a16.02251,16.02251,0,0,0-22.625,0l-9.42188,9.42188a15.90509,15.90509,0,0,0-3,4.16406L51.05469,184H16v16H50.583l28.83887,72.08594L58.45312,328H49.0625l6.47656-51.80469a15.88762,15.88762,0,0,0-3.07812-11.57812l-22.0625-29.41407-12.79688,9.59376,22.0625,29.41406L33.1875,326.00781A15.87409,15.87409,0,0,0,33.15088,328H16v16H136v11.88281a15.66455,15.66455,0,0,0,.25391,2.10059L120.6875,412.47656,90.53125,454.69531A15.85343,15.85343,0,0,0,87.65186,464H16v16H384a112,112,0,0,0,0-224ZM56,40H88V56H56ZM88,72V94.55762L56,89.2251V72Zm248,56V266.96045a112.51756,112.51756,0,0,0-41.46484,33.94336l-24.48047-18.36475-21.29688-35.48437c-.21777-.36328-.51416-.65821-.75781-1.00049V184a16.02085,16.02085,0,0,0-16-16H200a16.02085,16.02085,0,0,0-16,16v51.99609l-24,18.01026V128ZM280.14551,326.272l-15.59278-3.11718,9.89795-17.32081L285.75,314.30859A111.561,111.561,0,0,0,280.14551,326.272Zm-66.44239-15.28759L204.6875,320H152V305.53906l14.60156-36.48437,27.46094-20.60157,40.97656,6.82813,21.28906,35.47656a15.7446,15.7446,0,0,0,4.125,4.57813l1.09913.82422-12.938,22.64013-14.72364-9.81591A16.0604,16.0604,0,0,0,213.70312,310.98438ZM232,200H200V184h32Zm0,16v22.55518l-32-5.33155V216Zm-88-36.6875v10.93018L127.47461,186.938l8.05273-16.09815ZM75.54688,328l18.86718-50.3125a16.03967,16.03967,0,0,0-.13281-11.53125L64.68066,192.1582c.21-.35156.50147-.63086.68653-1.00195l5.21093-10.42187L80,171.3125l24.63281,24.63281a16.00488,16.00488,0,0,0,8.17188,4.375L144,206.55811v75.89306l-6.86719,17.166A16.05309,16.05309,0,0,0,136,305.53906V320a15.81,15.81,0,0,0,2.22656,8H75.54688Zm28,136,30.15624-42.21875a16.19494,16.19494,0,0,0,2.375-4.91406l12.50293-43.76953,23.63038,16.88183-11.09424,29.59082L116.6875,464Zm81.48437-1.75781A15.75629,15.75629,0,0,0,185.02344,464H139.3125l33.11719-33.11719a15.80108,15.80108,0,0,0,3.67187-5.69531l9.59131-25.57715,5.83838,4.1709ZM200.9375,464l6.5-58.45312a15.98623,15.98623,0,0,0-6.60938-14.78126L152,355.88281V336h51.0542l28.36768,56.74219L210.04688,464Zm25.81543,0L246.75,397.33594a15.91457,15.91457,0,0,0-1.01562-11.75l-28-56.00782,7.28124-7.28124,17.25782,11.5a15.946,15.946,0,0,0,5.71094,2.35937L275.27,341.6123A111.04608,111.04608,0,0,0,326.60889,464ZM384,464a96,96,0,1,1,96-96A96.105,96.105,0,0,1,384,464Z"/></svg>
