<svg id="Capa_1" enable-background="new 0 0 511.112 511.112" height="512" viewBox="0 0 511.112 511.112" width="512" xmlns="http://www.w3.org/2000/svg"><g><g><g><path d="m35.859 222.196c116.004-7.196 232.008-7.196 348.011 0 10.519.653 19.184 8.556 20.752 18.978 10.18 67.642 10.18 135.284 0 202.926-1.568 10.422-10.234 18.325-20.752 18.978-116.004 7.196-232.008 7.196-348.011 0-10.519-.652-19.184-8.556-20.752-18.978-10.18-67.642-10.18-135.284 0-202.926 1.568-10.422 10.234-18.325 20.752-18.978z" fill="#95d6a4"/><g fill="#78c2a4"><path d="m77.566 438.213c0-20.996-17.02-38.016-38.016-38.016-1.502 0-2.981.097-4.438.266-3.406-38.488-3.406-77.165 0-115.654 1.457.169 2.936.266 4.438.266 20.996 0 38.016-17.02 38.016-38.016 0-.688-.02-1.371-.056-2.05 44.109-2.095 88.467-3.168 132.355-3.168 42.386 0 85.212.988 127.826 2.943-.044.753-.074 1.51-.074 2.275 0 20.996 17.02 38.016 38.016 38.016 3.071 0 6.054-.374 8.915-1.062 3.501 39.016 3.501 78.228 0 117.245-2.861-.688-5.843-1.062-8.915-1.062-20.996 0-38.016 17.02-38.016 38.016 0 .764.029 1.521.074 2.275-42.614 1.955-85.44 2.943-127.826 2.943-43.888 0-88.245-1.072-132.355-3.168.036-.678.056-1.361.056-2.049z"/><ellipse cx="209.866" cy="342.636" rx="79.606" ry="71.861"/><g><circle cx="87.789" cy="342.637" r="19.65"/><circle cx="331.943" cy="342.637" r="19.65"/></g></g></g><g><circle cx="381.205" cy="165.062" fill="#d3effb" r="122.407"/><path d="m402.593 285.695c-6.778 1.175-13.754 1.778-20.864 1.778-67.604 0-122.411-54.807-122.411-122.411s54.807-122.411 122.411-122.411c7.111 0 14.086.603 20.864 1.778-57.655 9.897-101.536 60.14-101.536 120.633s43.88 110.737 101.536 120.633z" fill="#9dc6fb"/><path d="m381.205 180.656h-56.87c-8.612 0-15.594-6.982-15.594-15.594s6.982-15.594 15.594-15.594h56.87c8.612 0 15.594 6.982 15.594 15.594-.001 8.612-6.982 15.594-15.594 15.594z" fill="#365e7d"/><path d="m381.205 180.656c-8.612 0-15.594-6.982-15.594-15.594v-39.817c0-8.612 6.982-15.594 15.594-15.594s15.594 6.982 15.594 15.594v39.817c-.001 8.612-6.982 15.594-15.594 15.594z" fill="#2b4d66"/></g></g><g><path d="m209.866 263.276c-48.03 0-87.106 35.601-87.106 79.361s39.076 79.361 87.106 79.361 87.106-35.601 87.106-79.361-39.076-79.361-87.106-79.361zm0 143.721c-39.76 0-72.106-28.872-72.106-64.361s32.347-64.361 72.106-64.361 72.106 28.872 72.106 64.361-32.346 64.361-72.106 64.361z"/><path d="m87.789 315.487c-14.971 0-27.149 12.179-27.149 27.15s12.179 27.15 27.149 27.15 27.15-12.179 27.15-27.15-12.18-27.15-27.15-27.15zm0 39.299c-6.699 0-12.149-5.45-12.149-12.15s5.45-12.15 12.149-12.15c6.7 0 12.15 5.45 12.15 12.15s-5.45 12.15-12.15 12.15z"/><path d="m331.943 315.487c-14.971 0-27.15 12.179-27.15 27.15s12.18 27.15 27.15 27.15 27.149-12.179 27.149-27.15-12.178-27.15-27.149-27.15zm0 39.299c-6.7 0-12.15-5.45-12.15-12.15s5.45-12.15 12.15-12.15c6.699 0 12.149 5.45 12.149 12.15s-5.45 12.15-12.149 12.15z"/><path d="m220.664 335.036c-7.984-2.324-16.825-5.139-21.863-8.394-1.753-1.132-1.861-2.922-1.645-4.225.411-2.468 2.479-5.509 7.047-6.643 5.544-1.376 10.116-.728 13.245.224 3.011.916 6.267-.118 8.171-2.624 3.146-4.142 1.226-10.154-3.743-11.691-1.518-.469-3.208-.881-5.042-1.185v-2.383c0-4.142-3.357-7.5-7.5-7.5s-7.5 3.358-7.5 7.5v2.816c-.412.09-.824.18-1.242.284-9.574 2.375-16.73 9.729-18.231 18.735-1.293 7.757 1.889 15.148 8.302 19.291 5.368 3.468 12.846 6.422 25.809 10.196 6.052 1.762 9.18 5.224 8.582 9.498-.714 5.103-6.479 10.554-15.761 10.604-8.804.047-11.781-.342-18.629-4.03-3.918-2.11-8.87-.382-10.55 3.887-1.417 3.6.327 7.661 3.74 9.481 7.002 3.735 11.987 5.056 17.981 5.481v2.795c0 4.142 3.357 7.5 7.5 7.5s7.5-3.358 7.5-7.5v-3.391c13.48-2.809 21.69-12.848 23.074-22.751 1.262-9.029-3.021-21.251-19.245-25.975z"/><path d="m511.112 165.062c0-71.631-58.276-129.907-129.907-129.907s-129.908 58.276-129.908 129.907c0 15.693 2.798 30.744 7.919 44.683-74.349-1.308-149.584.359-223.82 4.972-13.976.863-25.632 11.52-27.715 25.339-10.243 68.073-10.243 137.1.001 205.164 2.081 13.811 13.733 24.471 27.709 25.348 5.777.361 11.564.702 17.342 1.023.142.008.282.012.423.012 3.951 0 7.26-3.09 7.481-7.084.229-4.136-2.937-7.674-7.072-7.904-5.744-.319-11.496-.658-17.236-1.017-6.969-.437-12.778-5.742-13.814-12.611-10.02-66.582-10.02-134.106 0-200.696 1.036-6.872 6.843-12.171 13.81-12.602 76.161-4.732 153.378-6.345 229.588-4.813 1.815 3.484 3.777 6.88 5.89 10.171-20.747-.461-41.517-.706-61.939-.706-43.543 0-88.191 1.069-132.705 3.178-4.13.196-7.322 3.695-7.138 7.825.025.569.042 1.139.042 1.717 0 16.829-13.687 30.52-30.51 30.52-1.134 0-2.302-.072-3.572-.22-2.011-.236-4.032.355-5.603 1.633-1.57 1.278-2.557 3.138-2.735 5.154-3.438 38.809-3.438 78.165 0 116.974.179 2.017 1.165 3.876 2.735 5.154 1.57 1.277 3.589 1.867 5.603 1.633 1.197-.139 2.398-.21 3.572-.21 16.823 0 30.51 13.687 30.51 30.51 0 .578-.017 1.147-.042 1.716-.185 4.129 3.007 7.629 7.136 7.826 44.298 2.109 88.947 3.178 132.707 3.178 42.303 0 85.426-.992 128.172-2.948 2.013-.092 3.903-.99 5.247-2.492s2.026-3.48 1.895-5.491c-.043-.647-.063-1.232-.063-1.789 0-16.823 13.691-30.51 30.52-30.51 2.403 0 4.814.287 7.167.853 2.116.508 4.356.071 6.127-1.2s2.901-3.25 3.096-5.422c3.199-35.647 3.499-71.77.903-107.496 3.364-.302 6.69-.732 9.976-1.287 3.687 49.761 1.78 100.125-5.697 149.837-1.036 6.871-6.841 12.175-13.798 12.612-99.595 6.168-200.522 7.016-299.978 2.523-4.186-.191-7.645 3.016-7.831 7.154-.188 4.138 3.016 7.644 7.153 7.831 42.091 1.902 84.44 2.852 126.846 2.852 58.33 0 116.762-1.798 174.743-5.389 13.967-.876 25.615-11.537 27.697-25.35 7.758-51.582 9.64-103.85 5.641-155.469 53.929-15.8 93.432-65.713 93.432-124.686zm-133.374 227.687c-.702-.032-1.403-.049-2.105-.049-23.443 0-42.805 17.81-45.257 40.608-40.231 1.74-80.736 2.622-120.513 2.622-41.249 0-83.296-.956-125.087-2.841-2.463-21.896-20.524-39.139-42.776-40.324-2.582-33.297-2.582-66.953-.001-100.25 22.252-1.185 40.314-18.432 42.777-40.333 41.986-1.887 84.032-2.843 125.087-2.843 24.189 0 48.868.338 73.416.988 23.163 26.567 56.932 43.659 94.642 44.6 2.393 32.496 2.332 65.333-.183 97.822zm67.273-132.171-3.855-6.678c-2.07-3.587-6.656-4.816-10.245-2.745-3.587 2.071-4.816 6.658-2.745 10.245l3.866 6.696c-13.214 6.545-27.857 10.62-43.327 11.621v-18.14c0-4.142-3.357-7.5-7.5-7.5s-7.5 3.358-7.5 7.5v18.14c-15.469-1.001-30.113-5.076-43.327-11.621l3.866-6.696c2.071-3.587.842-8.174-2.745-10.245-3.589-2.072-8.175-.842-10.245 2.745l-3.855 6.678c-12.526-8.395-23.315-19.184-31.71-31.709l6.678-3.856c3.587-2.071 4.816-6.658 2.745-10.245-2.072-3.587-6.659-4.815-10.245-2.745l-6.697 3.866c-6.545-13.214-10.62-27.857-11.622-43.327h18.14c4.143 0 7.5-3.358 7.5-7.5s-3.357-7.5-7.5-7.5h-18.14c1.002-15.469 5.077-30.113 11.622-43.327l6.696 3.866c1.182.682 2.471 1.006 3.743 1.006 2.592 0 5.113-1.346 6.502-3.751 2.071-3.587.842-8.174-2.745-10.245l-6.678-3.855c8.395-12.525 19.184-23.315 31.71-31.709l3.855 6.678c1.389 2.406 3.91 3.751 6.502 3.751 1.272 0 2.562-.324 3.743-1.006 3.587-2.071 4.816-6.658 2.745-10.245l-3.866-6.696c13.214-6.545 27.857-10.62 43.327-11.621v18.14c0 4.142 3.357 7.5 7.5 7.5s7.5-3.358 7.5-7.5v-18.14c15.469 1.001 30.113 5.076 43.327 11.621l-3.866 6.696c-2.071 3.587-.842 8.174 2.745 10.245 1.182.682 2.471 1.006 3.743 1.006 2.592 0 5.113-1.346 6.502-3.751l3.855-6.678c12.525 8.395 23.315 19.184 31.71 31.709l-6.678 3.855c-3.587 2.071-4.816 6.658-2.745 10.245 1.389 2.406 3.91 3.751 6.502 3.751 1.272 0 2.562-.324 3.743-1.006l6.696-3.866c6.545 13.214 10.62 27.858 11.622 43.327h-18.14c-4.143 0-7.5 3.358-7.5 7.5s3.357 7.5 7.5 7.5h18.14c-1.002 15.469-5.076 30.113-11.622 43.327l-6.697-3.866c-3.587-2.073-8.175-.843-10.245 2.745-2.071 3.587-.842 8.174 2.745 10.245l6.678 3.856c-8.393 12.525-19.182 23.315-31.708 31.709z"/><path d="m396.799 132.743c-4.143 0-7.5 3.358-7.5 7.5v24.82c0 4.461-3.634 8.09-8.1 8.09-4.461 0-8.09-3.629-8.09-8.09v-39.82c0-4.461 3.629-8.09 8.09-8.09 1.544 0 3.042.436 4.333 1.26 3.491 2.231 8.129 1.208 10.357-2.283 2.23-3.491 1.208-8.128-2.283-10.358-3.706-2.368-7.997-3.62-12.407-3.62-12.731 0-23.09 10.358-23.09 23.09v16.726h-33.78c-12.734 0-23.094 10.36-23.094 23.094s10.359 23.094 23.094 23.094h56.876v-.003c12.735-.003 23.094-10.36 23.094-23.09v-24.82c0-4.142-3.357-7.5-7.5-7.5zm-80.563 32.319c0-4.463 3.631-8.094 8.094-8.094h33.78v8.094c0 2.847.521 5.573 1.468 8.093h-35.248c-4.463.001-8.094-3.63-8.094-8.093z"/></g></g></svg>